<svg width="158" height="119" viewBox="0 0 158 119" fill="none" xmlns="http://www.w3.org/2000/svg">
<g clip-path="url(#clip0_4102_3908)">
<path d="M39.9573 35.9337C37.5148 36.6153 34.9822 35.1878 34.3006 32.7453C33.6191 30.3028 35.0466 27.7702 37.4891 27.0886C39.9316 26.407 42.4642 27.8345 43.1458 30.277C43.8273 32.7196 42.3998 35.2521 39.9573 35.9337Z" fill="#231F20"/>
<path d="M11.2199 42.2801C10.2461 42.5518 9.23645 41.9827 8.96471 41.0089C8.69298 40.0352 9.26209 39.0255 10.2359 38.7537C11.2096 38.482 12.2193 39.0511 12.491 40.0249C12.7628 40.9987 12.1937 42.0083 11.2199 42.2801Z" fill="#231F20"/>
<path d="M14.9505 74.4052C14.2258 74.6074 13.4181 73.9819 13.1463 73.0082C12.8746 72.0344 13.2418 71.0811 13.9664 70.8788C14.6911 70.6766 15.4988 71.3021 15.7706 72.2759C16.0423 73.2496 15.6751 74.203 14.9505 74.4052Z" fill="#231F20"/>
<path d="M30.4145 56.3328C29.4407 56.6045 28.431 56.0354 28.1593 55.0617C27.8876 54.0879 28.4567 53.0782 29.4304 52.8065C30.4042 52.5347 31.4139 53.1038 31.6856 54.0776C31.9574 55.0514 31.3882 56.0611 30.4145 56.3328Z" fill="#231F20"/>
<path d="M38.9789 90.4177C36.7561 90.1225 24.2834 96.3117 18.5872 98.1854C15.6914 93.1027 14.1671 88.3191 12.2644 81.5008C10.9354 76.7385 9.93058 72.1193 9.39187 67.7679C10.5827 73.5285 12.9221 77.7941 14.787 77.4631C16.759 77.1085 17.452 71.7631 16.3394 65.5135C15.2268 59.2639 12.7243 54.4818 10.7523 54.8364C10.0489 54.9632 9.51791 55.7301 9.15962 56.935C10.1182 48.0618 14.4198 41.3936 24.0147 38.7161C41.2831 33.8973 52.0048 57.1141 57.654 77.3583C63.3032 97.6024 61.7403 107.206 44.4718 112.025C35.6853 114.477 28.9689 111.767 23.7442 105.851M25.2593 51.4574C19.4778 53.0708 20.2221 58.2045 21.9287 64.32C23.6352 70.4354 25.6566 75.2128 31.4381 73.5995C37.2197 71.9861 37.846 66.4698 36.1394 60.3544C34.4329 54.239 31.0408 49.844 25.2593 51.4574Z" fill="#231F20"/>
<path d="M28.0986 98.082C25.6368 99.8487 22.9534 101.5 20.6623 103.472C21.2987 105.662 28.5443 99.4982 30.3875 98.0936C32.0283 96.8465 36.8724 94.1815 38.3092 92.7009C38.6522 92.3463 40.7704 89.5517 41.72 88.4974C42.1254 88.0497 39.1089 88.7336 38.502 88.663C38.2474 88.6331 37.9173 88.6494 37.4907 88.7495C36.7069 89.1766 36.0929 91.3431 33.4476 93.4703" fill="#231F20"/>
<path d="M27.174 96.0354C24.4335 97.3241 21.491 98.4546 18.8795 99.9789C18.4199 102.292 27.8321 97.285 29.8976 96.2476C31.7361 95.3242 33.2901 94.0824 34.9723 92.8932C35.3734 92.6108 38.2236 90.8557 39.3509 89.9855C39.8352 89.6168 39.7012 88.8649 39.1192 88.6801C38.8707 88.6042 38.5435 88.5629 38.1132 88.582C37.2636 88.8633 36.2662 90.8779 33.2791 92.4817" fill="#231F20"/>
</g>
<g clip-path="url(#clip1_4102_3908)">
<path d="M76.6344 79.7838C76.9007 87.1409 74.9896 93.0536 77.7008 92.8589C82.8916 92.4775 89.3641 83.543 88.8323 76.2979C88.5789 72.8328 81.7735 60.9804 75.8437 60.2295C69.5065 59.4219 76.407 73.5839 76.6344 79.7838Z" fill="#231F20"/>
</g>
<g clip-path="url(#clip2_4102_3908)">
<path d="M109.944 66.4719C110.966 73.05 105.117 79.2408 104.898 79.9521C101.879 89.7666 125.421 72.7666 122.668 66.0466C121.049 62.0979 116.049 58.322 110.806 57.2722C102.219 55.5519 108.83 59.2883 109.944 66.4719Z" fill="#231F20"/>
</g>
<g clip-path="url(#clip3_4102_3908)">
<path d="M128.381 50.7455C132.332 53.3428 132.376 56.7589 132.818 57.2796C134.41 59.159 137.667 52.5295 135.27 48.5074C134.427 47.0946 133.071 45.5851 130.005 46.7691C124.602 48.8577 127.452 50.1333 128.381 50.7455Z" fill="#231F20"/>
</g>
<g clip-path="url(#clip4_4102_3908)">
<path d="M141.907 32.1341C141.076 32.3661 140.214 31.8802 139.982 31.0487C139.749 30.2173 140.235 29.3552 141.067 29.1232C141.898 28.8912 142.76 29.3771 142.992 30.2086C143.224 31.04 142.738 31.9021 141.907 32.1341Z" fill="#231F20"/>
</g>
<defs>
<clipPath id="clip0_4102_3908">
<rect width="44.8327" height="83.6873" fill="white" transform="matrix(-0.9632 0.268785 0.268785 0.9632 43.1829 25.5)"/>
</clipPath>
<clipPath id="clip1_4102_3908">
<rect width="16.2436" height="32.2988" fill="white" transform="matrix(-0.9632 0.268785 0.268785 0.9632 83.75 57.7451)"/>
</clipPath>
<clipPath id="clip2_4102_3908">
<rect width="21.6197" height="24.9402" fill="white" transform="matrix(-0.9632 0.268785 0.268785 0.9632 119.196 53.5361)"/>
</clipPath>
<clipPath id="clip3_4102_3908">
<rect width="8.55057" height="11.4332" fill="white" transform="matrix(-0.9632 0.268785 0.268785 0.9632 134.617 45.4443)"/>
</clipPath>
<clipPath id="clip4_4102_3908">
<rect width="3.12588" height="3.12588" fill="white" transform="matrix(-0.9632 0.268785 0.268785 0.9632 142.572 28.7031)"/>
</clipPath>
</defs>
</svg>
