<svg width="30" height="25" viewBox="0 0 30 25" fill="none" xmlns="http://www.w3.org/2000/svg">
<g clip-path="url(#clip0_4032_1058)">
<path d="M10.5622 5.9926H18.999C19.728 5.9926 20.321 5.40643 20.321 4.68588C20.321 4.54932 20.4334 4.43825 20.5715 4.43825C21.1346 4.43825 21.5928 3.98548 21.5928 3.4288V2.5638C21.5928 2.00724 21.1347 1.55435 20.5715 1.55435C20.4334 1.55435 20.321 1.44328 20.321 1.30672C20.321 1.26133 20.3186 1.21544 20.3139 1.17053L20.3134 1.16628C20.2788 0.848005 20.1266 0.553764 19.885 0.337575C19.6414 0.119808 19.3268 0 18.999 0H10.5622C9.83325 0 9.24023 0.586175 9.24023 1.30672V4.68575C9.24023 5.4063 9.83325 5.99248 10.5622 5.99248V5.9926ZM10.0108 1.30672C10.0108 1.00617 10.2582 0.761699 10.5622 0.761699H18.999C19.2741 0.761699 19.5084 0.964293 19.5452 1.23328L19.5488 2.87989C19.5493 3.0894 19.7221 3.25995 19.9351 3.25995C20.1475 3.25947 20.32 3.08819 20.3196 2.87819L20.3182 2.28449C20.4008 2.30549 20.4858 2.31605 20.5715 2.31605C20.7097 2.31605 20.8221 2.42712 20.8221 2.56368V3.42868C20.8221 3.56524 20.7097 3.67631 20.5715 3.67631C20.4564 3.67631 20.3431 3.69536 20.2348 3.73299C20.1619 3.64535 20.0528 3.59388 19.9364 3.59388C19.8335 3.59401 19.7367 3.63382 19.6642 3.7058C19.5915 3.77791 19.5515 3.87356 19.5517 3.97528L19.5526 4.62081C19.551 4.64521 19.5503 4.66585 19.5503 4.68563C19.5503 4.98619 19.303 5.23054 18.9989 5.23054H10.5621C10.258 5.23054 10.0107 4.98606 10.0107 4.68563V1.30672H10.0108Z" fill="#2E2D2C"/>
<path d="M11.4246 4.63449H11.9275C12.3712 4.63449 12.7322 4.27762 12.7322 3.83905V2.15335C12.7322 1.71479 12.3712 1.35791 11.9275 1.35791H11.4246C10.9809 1.35791 10.6199 1.71479 10.6199 2.15335V3.83905C10.6199 4.27762 10.9809 4.63449 11.4246 4.63449ZM11.3905 2.15323C11.3905 2.13466 11.4058 2.11949 11.4246 2.11949H11.9275C11.9463 2.11949 11.9615 2.13466 11.9615 2.15323V3.83893C11.9615 3.8575 11.9463 3.87267 11.9275 3.87267H11.4246C11.4058 3.87267 11.3905 3.85762 11.3905 3.83893V2.15323Z" fill="#2E2D2C"/>
<path d="M3.96623 15.7422C4.17008 15.6642 4.27152 15.4376 4.19268 15.2361C4.12919 15.0737 4.09689 14.9021 4.09689 14.726C4.09689 14.0221 4.62531 13.4219 5.32799 13.3249C5.53332 13.3166 7.53133 13.3112 7.70866 13.3112C8.49792 13.3112 9.13993 13.9459 9.13993 14.7259C9.13993 14.9374 9.094 15.1406 9.0035 15.3298C8.91004 15.5251 8.99453 15.7584 9.19212 15.8508C9.24677 15.8764 9.30437 15.8884 9.3611 15.8884C9.50945 15.8884 9.65165 15.8057 9.71919 15.6644C9.86017 15.3698 9.93164 15.054 9.93164 14.7259C9.93164 13.5142 8.93436 12.5286 7.70866 12.5286C7.69601 12.5286 7.00978 12.5292 6.36286 12.5325L8.75924 10.9241L10.072 10.6215C10.2849 10.5724 10.4173 10.362 10.3676 10.1516C10.318 9.94112 10.105 9.81038 9.89223 9.85942L8.50786 10.1785C8.46046 10.1895 8.41564 10.2089 8.37536 10.2358L4.75573 12.6653C3.90249 12.9786 3.30518 13.7937 3.30518 14.726C3.30518 14.999 3.35528 15.2656 3.45426 15.5185C3.5331 15.72 3.76237 15.8202 3.96623 15.7423V15.7422Z" fill="#2E2D2C"/>
<path d="M26.1586 16.1557L26.16 16.1543C26.16 16.1543 26.1602 16.154 26.1602 16.1539C26.1629 16.151 26.1658 16.1482 26.1685 16.1453C26.5237 15.7504 26.7194 15.2417 26.7194 14.7128C26.7194 13.9877 26.3539 13.3153 25.7417 12.9142C25.7247 12.9031 21.7003 10.2358 21.7003 10.2358C21.66 10.2089 21.6152 10.1895 21.5678 10.1785L20.1834 9.85942C19.9706 9.81038 19.7576 9.94112 19.708 10.1516C19.6584 10.3621 19.7907 10.5724 20.0036 10.6215L21.3164 10.9241L25.2024 13.4844L25.3096 13.5586C25.7025 13.816 25.9372 14.2475 25.9372 14.7128C25.9372 15.0497 25.8136 15.3735 25.589 15.626L22.661 18.6791C22.3978 18.9338 22.0509 19.074 21.682 19.074C20.9101 19.074 20.2823 18.4533 20.2823 17.6904C20.2823 17.3342 20.4189 16.9958 20.667 16.7377C20.6672 16.7373 20.6676 16.7371 20.668 16.7367L22.6886 14.6266C22.8371 14.4716 22.8302 14.2269 22.6734 14.0803C22.5165 13.9335 22.2691 13.9402 22.1206 14.0953L22.0908 14.1265L21.3255 13.6167C21.1464 13.4974 20.9034 13.5442 20.7827 13.7212C20.662 13.8982 20.7094 14.1384 20.8884 14.2577L21.5458 14.6956L20.1012 16.204C20.1012 16.204 20.1008 16.2045 20.1006 16.2047C19.7136 16.6072 19.5002 17.1348 19.5002 17.6904C19.5002 18.8796 20.479 19.8471 21.6821 19.8471C22.2649 19.8471 22.8127 19.6228 23.2249 19.2154C23.2314 19.209 23.2374 19.2024 23.2433 19.1957L26.1532 16.1616C26.1551 16.1597 26.1568 16.1578 26.1586 16.156V16.1557Z" fill="#2E2D2C"/>
<path d="M19.4323 12.7241C19.4323 11.5583 18.973 10.4622 18.1389 9.63782C17.305 8.81348 16.196 8.35938 15.0165 8.35938C13.837 8.35938 12.7282 8.81336 11.8942 9.63782C11.0603 10.4622 10.6009 11.5583 10.6009 12.7241C10.6009 13.8899 11.0602 14.986 11.8942 15.8103C12.0805 15.9945 12.2806 16.1599 12.4919 16.3062H0.395795C0.177205 16.3062 0 16.4813 0 16.6974V18.9171C0 19.1331 0.177205 19.3083 0.395795 19.3083H2.51342V24.6084C2.51342 24.8245 2.69062 24.9996 2.90921 24.9996C3.1278 24.9996 3.30501 24.8245 3.30501 24.6084V19.3083L17.6658 19.3062C17.8843 19.3062 18.0616 19.1311 18.0616 18.915C18.0616 18.6989 17.8843 18.5238 17.6658 18.5238L0.791591 18.5258V17.0886H18.4739C18.6925 17.0886 18.8697 16.9135 18.8697 16.6974C18.8697 16.4813 18.6925 16.3062 18.4739 16.3062H17.5412C17.7527 16.1599 17.9527 15.9945 18.1389 15.8103C18.9729 14.986 19.4323 13.8899 19.4323 12.7241ZM15.0166 16.3062C13.0184 16.3062 11.3927 14.6993 11.3927 12.7241C11.3927 10.7489 13.0184 9.14195 15.0166 9.14195C17.0149 9.14195 18.6406 10.7489 18.6406 12.7241C18.6406 14.6993 17.0149 16.3062 15.0166 16.3062Z" fill="#2E2D2C"/>
<path d="M29.604 16.3062H27.1573C26.9387 16.3062 26.7615 16.4813 26.7615 16.6974C26.7615 16.9134 26.9387 17.0886 27.1573 17.0886H29.2082V18.5258L25.4417 18.5223C25.2231 18.5223 25.0459 18.6975 25.0459 18.9135C25.0459 19.1296 25.2231 19.3048 25.4417 19.3048L26.6948 19.3083V24.6084C26.6948 24.8242 26.8717 24.9991 27.0901 24.9991C27.3084 24.9991 27.4854 24.8242 27.4854 24.6084L27.4865 19.3083H29.6041C29.8227 19.3083 29.9999 19.1331 29.9999 18.9171V16.6974C29.9999 16.4813 29.8227 16.3062 29.6041 16.3062H29.604Z" fill="#2E2D2C"/>
</g>
<defs>
<clipPath id="clip0_4032_1058">
<rect width="30" height="25" fill="white"/>
</clipPath>
</defs>
</svg>
