<svg width="26" height="26" viewBox="0 0 26 26" fill="none" xmlns="http://www.w3.org/2000/svg">
<path d="M13.4554 12.6903H13.7264C15.4218 12.6903 16.8012 11.3757 16.8012 9.75971V7.65811C16.8012 6.04212 15.4218 4.72754 13.7264 4.72754H13.4554C11.7595 4.72754 10.3802 6.04212 10.3802 7.65811V9.75971C10.3802 11.3757 11.7595 12.6903 13.4554 12.6903ZM11.1022 7.65811C11.1022 6.42152 12.1579 5.41568 13.4554 5.41568H13.7264C15.024 5.41568 16.0791 6.42175 16.0791 7.65811V9.75971C16.0791 10.9963 15.0237 12.0021 13.7264 12.0021H13.4554C12.1576 12.0021 11.1022 10.9961 11.1022 9.75971V7.65811ZM19.8216 14.4925C19.5787 14.2136 19.209 14.0601 18.7806 14.0601H15.2348C15.0355 14.0601 14.8738 14.2143 14.8738 14.4042C14.8738 14.5941 15.0355 14.7483 15.2348 14.7483H18.7804C18.9903 14.7483 19.1626 14.8134 19.2658 14.932C19.3575 15.0373 19.3888 15.1809 19.3559 15.3474C19.2942 15.6608 18.8442 16.0847 18.6023 16.3122L14.4952 20.2259C14.2641 20.4461 13.9544 20.5725 13.6229 20.5824C13.616 20.5826 13.609 20.5828 13.6022 20.5835C13.5972 20.5833 13.5926 20.5833 13.5907 20.5833L13.5806 20.5835C13.5734 20.5831 13.5659 20.5826 13.5584 20.5824C13.2272 20.5725 12.9177 20.4461 12.6867 20.2261L8.65635 16.3852L8.57909 16.3122C8.3372 16.0847 7.88712 15.6608 7.8255 15.3477C7.79277 15.1809 7.82406 15.0371 7.91576 14.9318C8.01877 14.8134 8.19111 14.7483 8.40074 14.7483H11.8375C12.0368 14.7483 12.1985 14.5941 12.1985 14.4042C12.1985 14.2143 12.0368 14.0601 11.8375 14.0601H8.40099C7.9728 14.0601 7.60311 14.2136 7.36049 14.4921C7.13016 14.7563 7.04327 15.105 7.11572 15.4741C7.21897 15.9991 7.75257 16.5014 8.07148 16.8017L12.1762 20.7129C12.5271 21.0469 12.9926 21.2432 13.4908 21.2682C13.5081 21.2707 13.5197 21.2721 13.544 21.2726C13.5551 21.2726 13.588 21.2719 13.5948 21.2717C13.6015 21.2719 13.6277 21.2726 13.6379 21.2726C13.6617 21.2742 13.673 21.2707 13.6903 21.2682C14.189 21.2434 14.6548 21.0469 15.0057 20.7127L19.036 16.8717L19.1099 16.8017C19.4288 16.5014 19.9624 15.9991 20.0659 15.4741C20.1383 15.1054 20.0517 14.7568 19.8216 14.4925Z" fill="#2E2D2C" fill-opacity="0.5"/>
<path d="M3.42607 20.4658C3.05186 20.7576 2.983 21.2997 3.29888 21.6538C4.64464 23.1624 6.32663 24.3395 8.21359 25.0868C10.3674 25.9397 12.71 26.2016 14.9989 25.8454C17.2879 25.4892 19.4401 24.5278 21.2329 23.0608C23.0257 21.5937 24.3939 19.6743 25.1959 17.501C25.998 15.3278 26.2048 12.9797 25.7949 10.6997C25.385 8.41974 24.3733 6.29071 22.8645 4.53291C21.3557 2.77512 19.4046 1.45241 17.2131 0.701649C15.2932 0.0439038 13.2497 -0.153897 11.2466 0.11879C10.7764 0.182796 10.4766 0.639636 10.5715 1.10458C10.6664 1.56952 11.1202 1.86603 11.591 1.80676C13.2932 1.59248 15.026 1.76886 16.6562 2.32733C18.558 2.97885 20.2512 4.12671 21.5605 5.65215C22.8699 7.17759 23.7478 9.02519 24.1036 11.0038C24.4593 12.9824 24.2798 15.0201 23.5838 16.906C22.8878 18.792 21.7004 20.4577 20.1446 21.7309C18.5888 23.004 16.7211 23.8383 14.7347 24.1474C12.7483 24.4565 10.7154 24.2292 8.84629 23.4891C7.24412 22.8546 5.81221 21.863 4.65729 20.5943C4.33785 20.2434 3.80027 20.174 3.42607 20.4658Z" fill="#2E2D2C" fill-opacity="0.5"/>
</svg>
