<svg width="58" height="145" viewBox="0 0 58 145" fill="none" xmlns="http://www.w3.org/2000/svg">
<path d="M42.9603 60.936C40.858 64.3016 39.2297 67.2514 38.0961 69.7458C36.88 72.2601 35.7258 75.1505 34.6128 78.417H36.7151C38.8381 72.3393 41.4969 66.8158 44.7123 61.8863C44.3001 61.3122 43.723 60.9954 42.9603 60.936Z" fill="black"/>
<path d="M16.0214 67.3506L15.9183 67.3902C15.3412 67.5486 14.8465 67.9049 14.3931 68.4592C15.5473 69.9242 16.5985 71.3892 17.5878 72.8542C18.0619 73.5867 18.5359 74.3192 18.9894 75.0517L19.6489 76.1406C20.0818 76.8731 20.494 77.5858 20.8856 78.3381H23.1116C20.7001 73.8837 18.3298 70.241 16.0214 67.3704V67.3506Z" fill="black"/>
<path d="M20.3496 35.8728H20.3084C19.7313 35.9124 19.2572 36.1104 18.8862 36.5063C22.0397 43.8907 24.2451 51.7107 25.4818 59.9463C26.3887 66.0439 26.6979 72.1811 26.4093 78.338H28.4086C28.7384 70.8348 28.2231 63.3713 26.8422 55.9473C26.4093 53.6706 25.894 51.3939 25.2963 49.137C25.1727 48.5629 24.678 46.8801 23.8329 44.1085C23.4825 42.9999 23.0909 41.8912 22.6993 40.8024L22.1016 39.1592L21.4626 37.5358L20.8031 35.9124L20.3496 35.853V35.8728Z" fill="black"/>
<path d="M41.1671 15.9566H41.0641L40.6312 15.9962L39.6419 19.1637C38.3434 23.4004 37.1686 27.6568 36.138 31.9528C34.5097 38.7037 33.2112 45.7515 32.2425 53.0567C31.9333 55.4522 31.6447 57.8675 31.4386 60.2629L31.1295 63.866C30.7585 68.6966 30.5523 73.5271 30.5317 78.3577H32.5929C32.6341 73.5865 32.8196 68.7956 33.1906 64.0046C33.3761 61.6092 33.6028 59.2335 33.8708 56.8578L34.3036 53.2943C36.1586 39.8123 38.9411 27.538 42.6511 16.4713C42.2183 16.0952 41.7236 15.917 41.1671 15.917V15.9566Z" fill="black"/>
<path d="M37.5189 84.3364H20.5559L20.2673 84.5542C21.4009 87.0289 21.9987 88.969 22.1842 90.3944C22.3078 91.3645 22.1842 92.5523 21.8132 93.9381C21.6689 94.4726 21.133 95.5417 20.0818 97.1057C19.4635 98.0164 18.0619 99.5012 16.1245 101.738C15.3618 102.609 14.9908 103.282 14.8259 103.599C13.4656 106.173 12.8885 108.806 13.0122 111.479C13.2183 115.478 14.0221 120.466 15.6504 126.465C19.2574 139.65 21.607 144.936 21.607 144.936L36.6945 144.896C38.2815 141.036 39.7243 136.68 41.0228 131.83C42.2595 127.158 43.187 123.06 43.8259 119.595C44.1557 117.853 44.4237 116.269 44.5473 114.844C44.8771 111.518 44.9183 109.717 44.7947 109.4C44.5267 106.529 43.9702 104.569 43.2076 103.48C43.0015 103.183 42.6923 102.491 41.9297 101.679C40.3427 99.9367 38.8999 98.4717 37.8693 97.0463C37.0861 95.9772 36.5296 94.8488 36.1792 93.6808C35.8082 92.4533 35.7463 91.3051 35.8494 90.2756C35.9937 88.87 36.5708 86.9299 37.6426 84.475L37.4983 84.3364H37.5189Z" fill="black"/>
<path d="M38.5907 80.1396L19.5871 80.1792H19.4841C19.0925 80.1792 18.7008 80.3376 18.4123 80.595C18.1237 80.8721 17.9382 81.2879 17.9588 81.6838C17.9588 82.06 18.1443 82.4361 18.4123 82.6737C18.7008 82.9311 19.0718 83.0894 19.4635 83.0894L38.7556 83.0696C39.0029 83.0301 39.2708 82.9509 39.477 82.7925C39.6831 82.6341 39.848 82.4361 39.951 82.1986C40.0541 81.961 40.0953 81.7036 40.0541 81.4265C40.0129 81.1691 39.9098 80.9315 39.7449 80.7138C39.4564 80.3574 39.0029 80.1396 38.5495 80.1396H38.5082H38.5907Z" fill="black"/>
<path d="M47.6183 51.8688C47.7626 51.8688 47.8863 51.8688 48.0306 51.8886C49.9886 52.1063 51.4108 53.8089 51.1841 55.6897C50.978 57.4516 49.4321 58.7384 47.6389 58.7384C47.4947 58.7384 47.371 58.7384 47.2267 58.7186C45.2687 58.5009 43.8465 56.7983 44.0732 54.9176C44.2793 53.1556 45.8252 51.8688 47.6183 51.8688ZM45.9488 45.3555C45.619 45.3555 45.2893 45.3951 44.9801 45.4743C44.2175 45.6524 43.5167 46.0682 43.0014 46.6225C42.4655 47.1966 42.1151 47.8895 42.0121 48.6418C41.909 49.3941 42.0121 50.1662 42.3625 50.8591C42.7129 51.5322 43.2694 52.1261 43.9495 52.5023C44.2793 52.7003 44.3824 53.0962 44.1763 53.413C44.0526 53.6307 43.8259 53.7297 43.5785 53.7297C43.4755 53.7297 43.3518 53.7099 43.2488 53.6505H43.2281C42.6098 53.2942 41.8678 53.0764 41.1464 53.0764C41.0433 53.0764 40.9609 53.0764 40.8785 53.0764C40.0746 53.1358 39.2708 53.4328 38.6318 53.9475C37.9929 54.4424 37.5394 55.1551 37.3127 55.9074C37.086 56.6597 37.1272 57.4912 37.4158 58.2435C37.6631 58.9166 38.1372 59.5105 38.7349 59.9461C39.3326 60.3816 40.054 60.6588 40.796 60.7182C40.9197 60.7182 41.0434 60.7182 41.167 60.7182C41.7854 60.7182 42.4037 60.5796 42.9602 60.3222C43.6198 60.0055 44.1969 59.4907 44.5885 58.877C44.7121 58.6593 44.9389 58.5603 45.1862 58.5603C45.3099 58.5603 45.4335 58.5999 45.5366 58.6593C45.8664 58.8374 45.9694 59.2532 45.7839 59.5699C45.3511 60.2826 45.1656 61.1141 45.248 61.9258C45.3305 62.7375 45.7015 63.5096 46.2786 64.1233C46.8557 64.7172 47.6389 65.1528 48.4634 65.3111C48.7107 65.3507 48.9787 65.3903 49.226 65.3903C49.8237 65.3903 50.4008 65.2715 50.9574 65.034C51.5963 64.737 52.1734 64.2817 52.565 63.7076C52.9773 63.1334 53.204 62.4801 53.2452 61.7872C53.2864 61.0943 53.1421 60.4014 52.8124 59.8075C52.4826 59.1938 51.9879 58.6791 51.3902 58.3029C51.0604 58.1247 50.978 57.709 51.1635 57.412C51.2871 57.1943 51.5139 57.0953 51.7612 57.0953C51.8642 57.0953 51.9879 57.1349 52.091 57.1745C52.6887 57.4912 53.3689 57.6694 54.049 57.6694C54.1933 57.6694 54.317 57.6694 54.4613 57.6694C55.2651 57.5902 56.0689 57.2536 56.6667 56.7389C57.285 56.2242 57.7178 55.5115 57.9033 54.7592C58.0888 53.9871 58.027 53.1754 57.7384 52.4429C57.4705 51.7896 56.9964 51.1957 56.4193 50.7799C55.8422 50.3642 55.1208 50.1068 54.3994 50.0276C54.2758 50.0276 54.1727 50.0276 54.0696 50.0276C53.4513 50.0276 52.8124 50.1662 52.2559 50.4434C51.5963 50.7601 51.0398 51.2551 50.6688 51.849C50.5451 52.047 50.2978 52.1657 50.0711 52.1657C49.9474 52.1657 49.8237 52.1261 49.7207 52.0668C49.3909 51.8886 49.2878 51.4728 49.4733 51.1561C49.865 50.5028 50.0505 49.7505 50.0092 48.9982C49.968 48.2459 49.6795 47.5134 49.226 46.9195C48.752 46.3255 48.113 45.8504 47.371 45.6128H47.3504C46.9176 45.4743 46.4641 45.3951 46.0313 45.3951L45.9488 45.3555Z" fill="black"/>
<path d="M47.6185 52.6807C46.2375 52.6807 45.0421 53.6705 44.8978 55.0167C44.7329 56.4619 45.8253 57.7686 47.3299 57.9269C47.433 57.9269 47.5567 57.9269 47.6391 57.9269C49.0201 57.9269 50.2155 56.9371 50.3598 55.5909C50.5247 54.1457 49.4323 52.839 47.9277 52.6807C47.8246 52.6807 47.7216 52.6807 47.6185 52.6807Z" fill="black"/>
<path d="M11.7343 51.1958H11.5694C10.003 51.2948 8.84872 52.0471 8.12733 53.4131C7.88 53.9476 7.75633 54.5217 7.75633 55.1157C7.75633 55.7492 8.00366 56.5015 8.51894 57.3528C8.51894 57.6893 8.4365 57.9071 8.23039 58.0457C7.96244 58.1842 7.69449 58.204 7.44716 58.0457C6.82882 57.2538 6.12804 56.7192 5.3242 56.4421C4.5822 56.2045 3.86081 56.1451 3.16002 56.3035C1.34624 56.7588 0.295063 57.8873 0.00650581 59.6888C-0.0759391 61.3518 0.624843 62.599 2.12946 63.4305C2.54169 63.6087 2.83024 63.7275 3.03636 63.7473C3.34553 63.8067 3.53103 63.8463 3.59286 63.8463H4.00508C4.04631 63.8463 4.04631 63.8463 4.00508 63.8661C4.80892 63.8661 5.63337 63.5889 6.49904 63.094C6.74638 63.0346 6.9731 63.1336 7.19983 63.3315C7.38533 63.5691 7.40594 63.8463 7.24105 64.1234C6.72577 64.5194 6.33415 64.8361 6.10743 65.1331C5.81887 65.5092 5.59215 65.8458 5.48909 66.1626C5.20054 66.8951 5.15931 67.6474 5.34481 68.4194C5.96315 70.3002 7.30288 71.2505 9.34339 71.3099C10.848 71.2307 11.9816 70.518 12.7649 69.1519C13.0328 68.6174 13.1565 68.0631 13.1565 67.4494C13.1565 66.8159 12.9297 66.0636 12.4351 65.2123C12.4351 64.8955 12.5175 64.658 12.7442 64.5392C13.0122 64.4006 13.2595 64.3808 13.5069 64.5392C13.6099 64.6184 13.6924 64.6778 13.713 64.7372C13.7336 64.7965 13.816 64.8955 13.9397 65.0143C14.1046 65.2123 14.3107 65.3707 14.5168 65.5488C14.9909 65.8854 15.4031 66.1032 15.7329 66.1824C16.4543 66.4001 17.1551 66.4397 17.8352 66.3011C19.6696 65.8458 20.7208 64.6976 21.0093 62.8762C21.0712 61.1934 20.391 59.9462 18.9276 59.1345C18.3299 58.8178 17.6909 58.6594 17.0108 58.6594C16.2482 58.6594 15.4443 58.8771 14.5993 59.3523C14.3107 59.3721 14.1046 59.2929 13.9397 59.1147C13.7748 58.8574 13.7336 58.6198 13.8573 58.402C13.9397 58.2832 13.9809 58.204 14.0221 58.1842C14.4344 57.9071 14.7435 57.6101 14.9703 57.3132C15.3207 56.8182 15.5268 56.4223 15.5886 56.0857C15.7947 55.2542 15.7947 54.5415 15.5886 53.9674C14.8672 52.1659 13.5893 51.2354 11.7755 51.2156L11.7343 51.1958ZM10.4358 57.8477H10.5801C10.9923 57.8675 11.4045 57.9467 11.7961 58.1249C12.0435 58.2238 12.1877 58.303 12.229 58.3426C12.4969 58.501 12.7442 58.699 12.9504 58.9167C13.5893 59.5899 13.8985 60.3817 13.8779 61.2726C13.8366 62.1833 13.4656 62.9752 12.7649 63.6285C12.6206 63.7671 12.4763 63.8661 12.3114 63.9849C12.229 64.064 11.9816 64.1828 11.5282 64.361C11.219 64.4798 10.7862 64.5392 10.2503 64.5392C9.67317 64.4996 9.21973 64.3808 8.88995 64.2026L8.60139 64.064L8.20978 63.7869L7.88 63.4899C7.26166 62.8168 6.95249 62.0249 6.95249 61.134C6.99371 60.2234 7.3441 59.4315 8.04489 58.7782C8.33344 58.5208 8.66322 58.303 9.03422 58.1447C9.21973 58.0655 9.40523 58.0061 9.59073 57.9665C10.0648 57.8873 10.3533 57.8477 10.4564 57.8675L10.4358 57.8477Z" fill="black"/>
<path d="M10.4357 58.4614C9.48761 58.4614 8.5601 58.9168 8.02421 59.768C7.19976 61.0549 7.61199 62.7178 8.9311 63.5097C9.38455 63.7869 9.89983 63.9057 10.3945 63.9057C11.3426 63.9057 12.2701 63.4503 12.806 62.5991C13.6305 61.3122 13.2182 59.6493 11.8991 58.8574C11.4457 58.5802 10.951 58.4614 10.4357 58.4614Z" fill="black"/>
<path d="M16.5366 25.9544C17.3405 25.9544 18.1237 26.2117 18.7832 26.7265C20.2879 27.9341 20.4734 30.0524 19.2367 31.4976C18.5359 32.3093 17.526 32.725 16.516 32.725C15.7122 32.725 14.9289 32.4677 14.2694 31.9331C12.7648 30.7453 12.5793 28.6072 13.8159 27.162C14.5167 26.3701 15.5061 25.9544 16.516 25.9544H16.5366ZM18.7008 19.54C18.268 19.54 17.8145 19.6192 17.3817 19.7578H17.3405C16.6397 20.0152 16.0213 20.4309 15.5679 21.005L15.5061 21.0644C15.0732 21.599 14.8053 22.2721 14.7022 22.9452C14.6198 23.6579 14.7434 24.3904 15.0526 25.0239C15.1969 25.3406 15.0526 25.7366 14.7228 25.8752C14.6198 25.9148 14.5373 25.9544 14.4343 25.9544C14.1869 25.9544 13.9602 25.8158 13.8366 25.598C13.4862 24.9447 12.9297 24.3904 12.2701 24.0142C11.6724 23.6777 10.9922 23.4995 10.2914 23.4995C10.1884 23.4995 10.1265 23.4995 10.0441 23.4995C9.28147 23.5391 8.51885 23.8163 7.90052 24.2716C7.28218 24.7269 6.80812 25.3406 6.54018 26.0533C6.27223 26.7661 6.25162 27.5579 6.43712 28.2904C6.64323 29.0229 7.07607 29.6961 7.65318 30.2108C8.25091 30.7057 8.99291 31.0423 9.79675 31.1413C9.96164 31.1413 10.1265 31.1809 10.2914 31.1809C10.8479 31.1809 11.4044 31.0621 11.8991 30.8641C11.8991 30.8641 12.0022 30.8047 12.0846 30.7651C12.167 30.7255 12.2701 30.7057 12.3732 30.7057C12.6205 30.7057 12.8678 30.8443 12.9915 31.0819C13.1564 31.3986 13.0121 31.7946 12.6823 31.9529C12.6411 31.9727 12.5793 31.9925 12.538 32.0321C12.538 32.0321 12.4968 32.0321 12.4762 32.0519C11.8167 32.4083 11.2601 32.9428 10.8891 33.5763C10.4769 34.2692 10.312 35.0809 10.4151 35.853C10.4975 36.6449 10.8479 37.3972 11.4044 37.9911C11.9609 38.585 12.6823 39.0008 13.4862 39.179C13.7747 39.2581 14.0633 39.2779 14.3724 39.2779C14.8053 39.2779 15.2587 39.1988 15.6916 39.0602H15.671L15.7122 39.0404C16.413 38.8028 17.0313 38.3673 17.5054 37.8129C17.9794 37.2388 18.2886 36.5657 18.3504 35.853C18.4329 35.1403 18.3092 34.4078 17.9794 33.7545C17.8145 33.4377 17.9588 33.0418 18.2886 32.8834C18.3916 32.8438 18.4947 32.8042 18.5771 32.8042C18.8245 32.8042 19.0718 32.9428 19.1955 33.1804H19.2367H19.2161C19.2161 33.1804 19.2573 33.2992 19.2985 33.3586H19.3398C19.7108 34.0119 20.3085 34.5662 20.9886 34.9027C21.5658 35.1799 22.2047 35.3383 22.8437 35.3383C23.0498 35.3383 23.2559 35.3383 23.462 35.2987C24.3071 35.1601 25.1109 34.7642 25.7086 34.19C26.3063 33.6159 26.698 32.8438 26.8216 32.0321C26.9247 31.3392 26.8216 30.6463 26.5537 30.0128C26.2857 29.3793 25.8117 28.8052 25.2552 28.4092C24.6987 28.0133 23.9979 27.7361 23.2765 27.6569C23.1322 27.6569 23.0085 27.6371 22.8643 27.6371C22.2872 27.6371 21.71 27.7559 21.1948 27.9935C21.1123 28.0331 21.0093 28.0529 20.9062 28.0529C20.6589 28.0529 20.4115 27.9143 20.2879 27.6965C20.123 27.3798 20.2466 26.9838 20.5764 26.8254C21.2978 26.4691 21.8955 25.8752 22.2665 25.1823C22.6375 24.4696 22.7818 23.6579 22.6788 22.8858C22.5757 22.1137 22.2047 21.3812 21.6482 20.8071C21.0917 20.2131 20.3703 19.8172 19.5665 19.6588C19.2779 19.5994 19.01 19.5598 18.7214 19.5598L18.7008 19.54Z" fill="black"/>
<path d="M16.5367 26.647C15.7329 26.647 14.9291 26.9835 14.3932 27.617C13.4038 28.7455 13.5687 30.4481 14.7642 31.3983C15.2794 31.8141 15.9184 32.0318 16.5573 32.0318C17.3612 32.0318 18.165 31.6953 18.7009 31.0618V31.042C19.6696 29.8937 19.5047 28.211 18.3299 27.2805C17.8146 26.8647 17.1757 26.6668 16.5573 26.6668L16.5367 26.647Z" fill="black"/>
<path d="M43.6405 5.86C45.3307 5.86 46.8147 7.02804 47.1032 8.67122C47.433 10.5124 46.1345 12.2743 44.2177 12.5713C44.0115 12.6109 43.826 12.6307 43.6199 12.6307C41.9298 12.6307 40.4458 11.4626 40.1572 9.79966C39.8275 7.95851 41.126 6.21635 43.0428 5.89959C43.2489 5.86 43.4344 5.86 43.6405 5.86ZM40.2809 0C39.5801 0 38.8793 0.178176 38.2816 0.51473C37.6221 0.890878 37.045 1.465 36.7152 2.13811C36.3854 2.81122 36.2617 3.58331 36.3648 4.33561C36.4678 5.0879 36.8182 5.78081 37.3335 6.35493H37.3541C37.8694 6.90926 38.5702 7.3052 39.3122 7.50317H39.3534C39.7244 7.60216 39.9511 7.97831 39.8481 8.33466C39.7656 8.63162 39.4771 8.84939 39.1473 8.84939C39.0855 8.84939 39.0442 8.84939 38.9824 8.82959C38.6526 8.73061 38.3022 8.69101 37.9518 8.69101C37.4778 8.69101 37.0243 8.7702 36.5915 8.92858C35.8289 9.18594 35.1487 9.70067 34.6747 10.3342C34.2212 10.9875 33.9739 11.7794 33.9739 12.5515C33.9739 13.3236 34.2624 14.1155 34.7571 14.749C35.1899 15.3231 35.8083 15.7784 36.4884 16.0358C36.9419 16.2338 37.4366 16.313 37.9312 16.313C38.1786 16.313 38.4053 16.2932 38.6526 16.2338C39.3946 16.0952 40.0748 15.7784 40.6107 15.2835C41.1672 14.7886 41.5588 14.1551 41.7443 13.482C41.8268 13.185 42.1153 12.9672 42.4451 12.9672C42.5069 12.9672 42.5688 12.9672 42.6306 12.987C43.0016 13.086 43.2283 13.4622 43.1459 13.8383C42.9398 14.6104 43.0016 15.4815 43.3108 16.2338C43.6199 16.9861 44.197 17.6394 44.9184 18.0749C45.5368 18.4313 46.2788 18.6293 47.0208 18.6293C47.1238 18.6293 47.2475 18.6293 47.3506 18.6293C48.1956 18.5501 48.9995 18.2135 49.6384 17.679C50.1743 17.2236 50.5659 16.6297 50.7926 15.9962C51.0194 15.3429 51.04 14.6302 50.8957 13.9769C50.7308 13.3236 50.401 12.7099 49.927 12.2149H49.9064C49.4323 11.7398 48.7934 11.3636 48.1338 11.1657H48.1132C47.7422 11.0667 47.5155 10.6905 47.6185 10.3342C47.701 10.0174 47.9895 9.81946 48.3193 9.81946C48.3811 9.81946 48.4223 9.81946 48.4842 9.83925C48.4842 9.83925 48.5048 9.83925 48.5254 9.83925H48.546C48.814 9.89865 49.0819 9.91844 49.3499 9.91844C49.8651 9.91844 50.3804 9.83926 50.8545 9.64128C51.5965 9.34432 52.256 8.82959 52.6889 8.17628C53.1217 7.52297 53.3484 6.73108 53.3072 5.95899C53.266 5.18689 52.9774 4.4148 52.4828 3.80108C52.0499 3.24676 51.4316 2.81122 50.7514 2.57365C50.298 2.41527 49.8239 2.33608 49.3499 2.33608C49.1025 2.33608 48.8346 2.35588 48.5872 2.41527C47.8658 2.55385 47.1857 2.8904 46.6498 3.36554C46.1139 3.84068 45.7223 4.47419 45.5368 5.1473C45.4543 5.44426 45.1658 5.64223 44.836 5.64223C44.7742 5.64223 44.7123 5.64223 44.6505 5.62243C44.2795 5.52345 44.0528 5.16709 44.1352 4.79095C44.3207 4.05845 44.2795 3.28635 44.0322 2.59345C43.7848 1.90054 43.3108 1.28682 42.6924 0.831486C42.0741 0.376149 41.3115 0.0989865 40.5489 0.0593919C40.5489 0.0593919 40.4252 0.0593919 40.3221 0.0593919L40.2809 0Z" fill="black"/>
<path d="M43.6405 6.55322C43.4962 6.55322 43.3313 6.55322 43.1664 6.59282C41.6412 6.83038 40.6106 8.2162 40.8786 9.70099C41.1053 11.0076 42.3008 11.9381 43.6405 11.9381C43.7848 11.9381 43.9703 11.9381 44.1145 11.8985C45.6398 11.6609 46.6703 10.2553 46.4024 8.79032C46.1757 7.4837 44.9802 6.55322 43.6405 6.55322Z" fill="black"/>
</svg>
