<svg width="138" height="135" viewBox="0 0 138 135" fill="none" xmlns="http://www.w3.org/2000/svg">
<g clip-path="url(#clip0_4506_70)">
<path d="M115.851 102.304C114.609 102.304 113.544 101.372 113.366 100.131L113.261 99.3448C113.068 97.9666 114.028 96.6938 115.399 96.4992L126.817 94.894C126.938 94.8778 127.051 94.8697 127.164 94.8697C128.406 94.8697 129.471 95.802 129.649 97.0424L129.754 97.8288C129.947 99.207 128.987 100.48 127.615 100.674L116.198 102.28C116.077 102.296 115.964 102.304 115.851 102.304Z" fill="black"/>
<path d="M127.156 95.2751C128.188 95.2751 129.092 96.0371 129.237 97.0992L129.35 97.8856C129.512 99.0449 128.705 100.115 127.559 100.277L116.15 101.882C116.053 101.899 115.956 101.907 115.859 101.907C114.827 101.907 113.923 101.145 113.778 100.083L113.665 99.2962C113.503 98.1369 114.31 97.0667 115.456 96.9046L126.865 95.2994C126.962 95.2832 127.059 95.2751 127.156 95.2751ZM127.156 94.4644C127.018 94.4644 126.881 94.4725 126.752 94.4968L115.343 96.102C113.753 96.329 112.64 97.8045 112.858 99.4016L112.971 100.188C113.172 101.623 114.407 102.709 115.851 102.709C115.988 102.709 116.126 102.701 116.255 102.677L127.664 101.072C128.431 100.966 129.116 100.561 129.584 99.9367C130.052 99.3124 130.254 98.5422 130.141 97.7721L130.028 96.9857C129.826 95.5507 128.592 94.4644 127.148 94.4644H127.156Z" fill="white"/>
<path d="M128.842 103.601C128.762 103.601 128.681 103.601 128.6 103.593L117.134 102.474C116.465 102.409 115.868 102.085 115.44 101.566C115.012 101.047 114.819 100.391 114.883 99.7178L114.956 98.9314C115.085 97.6342 116.158 96.6533 117.449 96.6533C117.53 96.6533 117.61 96.6533 117.691 96.6614L129.157 97.7802C129.827 97.845 130.424 98.1693 130.851 98.6882C131.279 99.207 131.473 99.8637 131.408 100.537L131.335 101.323C131.206 102.62 130.133 103.601 128.842 103.601Z" fill="black"/>
<path d="M117.441 97.0586C117.505 97.0586 117.578 97.0586 117.651 97.0667L129.124 98.1855C130.278 98.299 131.125 99.3286 131.021 100.496L130.948 101.282C130.843 102.377 129.923 103.196 128.858 103.196C128.794 103.196 128.721 103.196 128.648 103.188L117.175 102.069C116.021 101.955 115.173 100.926 115.278 99.7583L115.351 98.9719C115.456 97.8775 116.376 97.0586 117.441 97.0586ZM117.441 96.2479C115.932 96.2479 114.689 97.3829 114.544 98.8909L114.472 99.6772C114.318 101.282 115.488 102.717 117.086 102.871L128.56 103.99C128.656 103.998 128.753 104.006 128.842 104.006C130.351 104.006 131.593 102.871 131.739 101.364L131.811 100.577C131.965 98.9719 130.795 97.537 129.197 97.3829L117.723 96.2641C117.626 96.256 117.53 96.2479 117.441 96.2479Z" fill="white"/>
<path d="M128.237 106.933C128.027 106.933 127.825 106.909 127.615 106.868L117.126 104.574C116.763 104.525 116.4 104.404 116.061 104.201L108.089 99.5232C107.234 99.0205 106.701 98.1287 106.661 97.1315C106.282 95.8506 106.798 94.4805 107.928 93.7752L114.964 89.4136C115.432 89.1217 115.964 88.9758 116.505 88.9758C117.538 88.9758 118.474 89.5027 119.014 90.3783C119.861 91.7646 119.434 93.5887 118.054 94.4481L114.601 96.5884L118.578 98.9232L128.858 101.169C130.423 101.509 131.416 103.066 131.077 104.639C130.786 105.968 129.6 106.933 128.245 106.933H128.237Z" fill="black"/>
<path d="M116.513 89.3893C117.36 89.3893 118.199 89.8189 118.675 90.5972C119.41 91.7971 119.038 93.3699 117.844 94.1076L113.818 96.6046L118.425 99.3124L128.761 101.566C130.109 101.858 130.964 103.196 130.674 104.558C130.415 105.733 129.383 106.536 128.237 106.536C128.059 106.536 127.882 106.52 127.704 106.479L117.215 104.185C117.215 104.185 117.215 104.185 117.207 104.185C116.884 104.144 116.569 104.039 116.271 103.86L108.291 99.1827C107.516 98.7287 107.081 97.918 107.056 97.0748C106.709 95.9885 107.121 94.7562 108.138 94.1319L115.174 89.7703C115.585 89.5109 116.045 89.3893 116.505 89.3893M116.505 88.5786C115.884 88.5786 115.278 88.7488 114.754 89.0812L107.718 93.4428C106.443 94.2292 105.854 95.7696 106.258 97.2127C106.322 98.3314 106.927 99.3205 107.879 99.8799L115.859 104.558C116.231 104.777 116.626 104.914 117.045 104.979H117.062L127.535 107.265C127.769 107.314 128.003 107.338 128.237 107.338C129.778 107.338 131.134 106.236 131.464 104.72C131.852 102.928 130.714 101.161 128.939 100.772L118.724 98.5422L115.383 96.5803L118.264 94.7967C119.837 93.8239 120.321 91.7484 119.353 90.1757C118.74 89.1785 117.675 88.5786 116.505 88.5786Z" fill="white"/>
<path d="M32.7188 78.5419C32.1782 78.5419 31.6618 78.3717 31.2261 78.0474L21.9712 71.1482C21.4306 70.751 21.0836 70.1592 20.9868 69.4944C20.89 68.8296 21.0514 68.1648 21.4548 67.6216L21.9228 66.9812C22.3908 66.3407 23.1492 65.9597 23.94 65.9597C24.4806 65.9597 24.997 66.1299 25.4327 66.4542L34.6876 73.3534C35.8011 74.1803 36.035 75.7612 35.204 76.88L34.736 77.5204C34.268 78.1609 33.5095 78.5419 32.7188 78.5419Z" fill="black"/>
<path d="M23.9318 66.3731C24.3676 66.3731 24.8033 66.5109 25.1825 66.7866L34.4374 73.6857C35.3734 74.3829 35.567 75.7044 34.8731 76.6448L34.4051 77.2772C33.9936 77.8366 33.3562 78.1365 32.7107 78.1365C32.2749 78.1365 31.8312 77.9987 31.46 77.7231L22.2051 70.8239C21.2692 70.1267 21.0755 68.8052 21.7694 67.8648L22.2374 67.2324C22.6489 66.6731 23.2863 66.3731 23.9318 66.3731ZM23.9318 65.5624C23.012 65.5624 22.1406 66.0083 21.5919 66.746L21.1239 67.3784C20.1637 68.6755 20.4381 70.5077 21.7291 71.4725L30.9839 78.3716C31.4923 78.7446 32.0894 78.9473 32.7187 78.9473C33.6386 78.9473 34.51 78.5014 35.0587 77.7636L35.5267 77.1313C35.9866 76.507 36.1802 75.7287 36.0673 74.9585C35.9543 74.1884 35.5428 73.4993 34.9215 73.0372L25.6666 66.138C25.1583 65.7651 24.5612 65.5624 23.9318 65.5624Z" fill="white"/>
<path d="M31.2986 77.9744C30.9597 77.9744 30.6289 77.9095 30.3142 77.7717L19.7119 73.2398C18.437 72.6966 17.848 71.213 18.3886 69.9321L18.6952 69.2025C19.0906 68.2702 19.9943 67.6702 21.0029 67.6702C21.3417 67.6702 21.6726 67.7351 21.9872 67.8729L32.5896 72.4048C33.8645 72.948 34.4535 74.4316 33.9129 75.7125L33.6063 76.4421C33.2109 77.3745 32.3072 77.9744 31.2986 77.9744Z" fill="black"/>
<path d="M21.0112 68.0756C21.2855 68.0756 21.5679 68.1324 21.8342 68.2459L32.4365 72.7777C33.5097 73.2317 34.0019 74.4802 33.55 75.5504L33.2434 76.28C32.9045 77.0826 32.1218 77.5691 31.3069 77.5691C31.0326 77.5691 30.7502 77.5123 30.4839 77.3988L19.8815 72.8669C18.8084 72.4129 18.3162 71.1644 18.7681 70.0943L19.0747 69.3646C19.4136 68.562 20.1962 68.0756 21.0112 68.0756ZM21.0112 67.2649C19.8412 67.2649 18.7923 67.9621 18.3323 69.0485L18.0257 69.7781C17.7191 70.4996 17.711 71.2941 18.0015 72.0157C18.292 72.7372 18.8487 73.3047 19.5588 73.6128L30.1611 78.1447C30.5242 78.2987 30.9115 78.3798 31.2988 78.3798C32.4688 78.3798 33.5177 77.6826 33.9777 76.5962L34.2843 75.8666C34.9136 74.383 34.2197 72.6561 32.7431 72.0319L22.1408 67.5C21.7777 67.346 21.3904 67.2649 21.0031 67.2649H21.0112Z" fill="white"/>
<path d="M30.3382 79.8066C29.9751 79.8066 29.6282 79.7418 29.2893 79.612L19.0097 76.5881C18.2674 76.3692 17.6541 75.8747 17.283 75.1856C16.9118 74.5046 16.823 73.7101 17.049 72.9642C17.4121 71.7319 18.5578 70.8645 19.8327 70.8645C20.107 70.8645 20.3814 70.905 20.6476 70.9861L30.7417 73.9614L35.3408 73.8236L33.3237 70.2807C32.9364 69.5916 32.8315 68.7971 33.0413 68.0351C33.251 67.273 33.7352 66.6406 34.421 66.2434C34.8648 65.9921 35.3651 65.8542 35.8734 65.8542C36.9304 65.8542 37.9067 66.4217 38.4312 67.346L42.5301 74.5613C43.1918 75.7206 42.99 77.1718 42.046 78.1203C41.5296 78.9716 40.642 79.4986 39.6576 79.531L30.3382 79.8066Z" fill="black"/>
<path d="M35.8735 66.2596C36.753 66.2596 37.6083 66.7217 38.0763 67.5486L42.1752 74.764C42.7643 75.8017 42.5464 77.0745 41.7234 77.869C41.3038 78.5987 40.5373 79.1013 39.6416 79.1256L30.411 79.4013C30.411 79.4013 30.3626 79.4013 30.3384 79.4013C30.0237 79.4013 29.7171 79.3445 29.4427 79.231C29.4427 79.231 29.4427 79.231 29.4347 79.231L19.1309 76.1989C17.8076 75.8098 17.0491 74.4154 17.4364 73.0858C17.7592 71.9913 18.7516 71.2779 19.8328 71.2779C20.0668 71.2779 20.3008 71.3103 20.5348 71.3833L30.6853 74.3748L36.0268 74.2208L33.6788 70.0943C32.9849 68.8701 33.4045 67.3135 34.6229 66.6163C35.0182 66.3893 35.454 66.2839 35.8816 66.2839M35.8816 65.4732C35.3007 65.4732 34.7278 65.6272 34.2275 65.9191C32.6299 66.8352 32.0651 68.8944 32.9849 70.5077L34.6632 73.4587L30.7983 73.5722L20.7688 70.6212C20.4622 70.5321 20.1556 70.4834 19.8409 70.4834C18.3805 70.4834 17.0814 71.4644 16.6699 72.875C16.1535 74.6343 17.1621 76.4827 18.913 77.0016L29.2087 80.0336C29.5718 80.1714 29.9591 80.2363 30.3464 80.2363H30.4433L39.6739 79.9607C40.7793 79.9282 41.7799 79.3445 42.377 78.396C43.4178 77.3258 43.6357 75.6963 42.8934 74.3829L38.7944 67.1676C38.1973 66.1218 37.0838 65.4732 35.8897 65.4732H35.8816Z" fill="white"/>
<path d="M53.4235 35.6876C56.7879 35.6876 59.5154 32.9472 59.5154 29.5667C59.5154 26.1862 56.7879 23.4458 53.4235 23.4458C50.059 23.4458 47.3315 26.1862 47.3315 29.5667C47.3315 32.9472 50.059 35.6876 53.4235 35.6876Z" fill="#231F20"/>
<path d="M92.4116 33.5392C93.7529 33.5392 94.8403 32.4467 94.8403 31.0989C94.8403 29.7512 93.7529 28.6587 92.4116 28.6587C91.0703 28.6587 89.9829 29.7512 89.9829 31.0989C89.9829 32.4467 91.0703 33.5392 92.4116 33.5392Z" fill="#231F20"/>
<path d="M2.07367 105.563C3.21893 105.563 4.14734 104.63 4.14734 103.479C4.14734 102.329 3.21893 101.396 2.07367 101.396C0.928414 101.396 0 102.329 0 103.479C0 104.63 0.928414 105.563 2.07367 105.563Z" fill="#231F20"/>
<path d="M98.197 59.6199C99.1952 59.6199 100.004 58.5273 100.004 57.1796C100.004 55.8319 99.1952 54.7394 98.197 54.7394C97.1988 54.7394 96.3896 55.8319 96.3896 57.1796C96.3896 58.5273 97.1988 59.6199 98.197 59.6199Z" fill="#231F20"/>
<path d="M77.2505 57.9255C78.5918 57.9255 79.6792 56.8329 79.6792 55.4852C79.6792 54.1375 78.5918 53.045 77.2505 53.045C75.9091 53.045 74.8218 54.1375 74.8218 55.4852C74.8218 56.8329 75.9091 57.9255 77.2505 57.9255Z" fill="#231F20"/>
<path d="M74.1036 105.287C85.8921 94.3184 86.6183 119.783 99.0764 119.645C100.965 112.081 105.063 93.7103 105.063 84.2736C105.063 77.6825 104.7 71.3914 103.837 65.611C104.37 73.4344 102.901 79.7499 100.4 79.9931C97.7532 80.2444 94.9614 73.629 94.1545 65.2057C93.3476 56.7823 94.8403 49.7454 97.4869 49.494C98.4309 49.4049 99.3831 50.1994 100.271 51.6181C95.8812 40.5681 88.0061 33.5473 74.7895 33.5473C51.0028 33.5473 45.5806 67.2 45.5806 95.2183C45.5806 123.237 51.0028 135.008 74.7895 135.008C86.8926 135.008 94.5095 129.122 99.0764 119.653M77.7426 50.3534C85.7065 50.3534 86.586 57.212 86.586 65.6759C86.586 74.1397 85.7065 80.9984 77.7426 80.9984C69.7788 80.9984 67.0112 74.1397 67.0112 65.6759C67.0112 57.212 69.7788 50.3534 77.7426 50.3534Z" fill="#231F20"/>
<path d="M45.1369 112.973C47.4203 122.515 51.9711 129.422 48.437 130.144C41.6673 131.514 30.2097 122.361 28.3054 112.868C27.3937 108.328 31.8638 90.6702 39.174 87.5733C46.9846 84.2656 43.2165 104.923 45.1369 112.965V112.973Z" fill="#231F20"/>
<path d="M26.7156 112.713C27.7565 121.526 37.439 127.379 37.9716 128.214C45.3303 139.743 9.17416 126.35 10.3038 116.735C10.9654 111.084 16.0084 104.444 22.3343 101.218C32.6946 95.9317 25.578 103.098 26.7156 112.722V112.713Z" fill="#231F20"/>
<path d="M12.6115 108.052C8.48832 112.803 9.65022 117.205 9.27099 118.032C7.90737 121.015 1.37167 113.67 3.00963 107.647C3.58251 105.539 4.77669 103.107 9.11768 103.528C16.7669 104.274 13.5797 106.933 12.6115 108.052Z" fill="#231F20"/>
<path d="M41.1344 44.6217C40.1661 45.7486 38.6492 47.2808 36.6885 47.5646C36.4545 47.597 36.2124 47.6132 35.9784 47.6132C34.4938 47.6132 33.106 46.9647 31.7504 46.3323C31.2905 46.1215 30.8225 45.8945 30.3545 45.708C28.8215 45.0838 27.1593 44.7676 25.5052 44.7676C23.7623 46.689 22.6973 49.2428 22.6973 52.0478C22.6973 54.253 23.3508 56.296 24.4805 58.0066C26.1426 58.2822 27.8774 58.4038 29.5073 57.9822C31.3712 57.5039 33.0253 56.3446 34.6229 55.2258C34.9214 55.015 35.2119 54.8124 35.5105 54.6097C37.4308 53.2963 39.7385 51.983 42.2801 52.137C42.9579 52.1775 43.6034 52.3316 44.2247 52.5424C44.2247 52.3721 44.2409 52.21 44.2409 52.0397C44.2409 49.113 43.087 46.4701 41.207 44.5163C41.1828 44.5487 41.1505 44.5812 41.1263 44.6136L41.1344 44.6217Z" fill="#B4C649"/>
<path d="M30.6691 44.9216C31.1532 45.1162 31.6373 45.3432 32.1053 45.5621C33.6223 46.2755 35.0585 46.9403 36.5674 46.7295C38.2537 46.4863 39.6173 45.0919 40.5049 44.0704C40.5372 44.0299 40.5775 43.9893 40.6098 43.9407C38.7136 42.2544 36.2123 41.2248 33.477 41.2248C30.7417 41.2248 28.2404 42.2544 26.3442 43.9488C27.8289 44.038 29.3055 44.3704 30.6772 44.9298L30.6691 44.9216Z" fill="#D3E16B"/>
<path d="M42.2319 52.9801C39.9404 52.8342 37.7941 54.0746 35.9867 55.3069C35.6962 55.5095 35.3977 55.7122 35.1072 55.9149C33.445 57.0742 31.7264 58.2822 29.7173 58.7929C28.8781 59.0118 28.0228 59.0929 27.1675 59.0929C26.5059 59.0929 25.8362 59.0361 25.1826 58.9551C27.1595 61.3386 30.1368 62.8627 33.4612 62.8627C38.9479 62.8627 43.4745 58.7362 44.1442 53.4098C43.531 53.1747 42.8935 53.0207 42.2238 52.972L42.2319 52.9801Z" fill="#979940"/>
<path d="M105.959 3.3969C104.991 4.52379 103.474 6.05604 101.513 6.33979C101.279 6.37222 101.037 6.38843 100.803 6.38843C99.3185 6.38843 97.9307 5.73986 96.5751 5.1075C96.1152 4.89672 95.6472 4.66972 95.1792 4.48325C93.6462 3.859 91.984 3.54283 90.3299 3.54283C88.587 5.46422 87.522 8.01796 87.522 10.823C87.522 13.0282 88.1755 15.0712 89.3052 16.7818C90.9673 17.0574 92.7021 17.179 94.332 16.7575C96.1959 16.2791 97.85 15.1198 99.4476 14.001C99.7461 13.7902 100.037 13.5876 100.335 13.3849C102.256 12.0715 104.563 10.7582 107.105 10.9122C107.783 10.9527 108.428 11.1068 109.049 11.3176C109.049 11.1473 109.066 10.9852 109.066 10.8149C109.066 7.88825 107.912 5.24532 106.032 3.2915C106.008 3.32393 105.975 3.35636 105.951 3.38879L105.959 3.3969Z" fill="#B4C649"/>
<path d="M95.4938 3.69685C95.9779 3.89142 96.4621 4.11842 96.93 4.33732C98.447 5.05074 99.8832 5.71553 101.392 5.50474C103.078 5.26153 104.442 3.8671 105.33 2.8456C105.362 2.80507 105.402 2.76453 105.435 2.71589C103.538 1.02961 101.037 0 98.3017 0C95.5664 0 93.0651 1.02961 91.1689 2.724C92.6536 2.81318 94.1302 3.14557 95.5019 3.70496L95.4938 3.69685Z" fill="#D3E16B"/>
<path d="M107.057 11.7553C104.765 11.6094 102.619 12.8498 100.811 14.0821C100.521 14.2847 100.222 14.4874 99.9319 14.6901C98.2697 15.8494 96.5511 17.0574 94.542 17.5681C93.7028 17.787 92.8475 17.8681 91.9922 17.8681C91.3306 17.8681 90.6609 17.8114 90.0073 17.7303C91.9842 20.1138 94.9615 21.6379 98.2859 21.6379C103.773 21.6379 108.299 17.5114 108.969 12.185C108.356 11.9499 107.718 11.7959 107.049 11.7472L107.057 11.7553Z" fill="#979940"/>
<path d="M134.894 71.9508C133.925 73.0777 132.408 74.61 130.448 74.8937C130.214 74.9262 129.972 74.9424 129.738 74.9424C128.253 74.9424 126.865 74.2938 125.51 73.6615C125.05 73.4507 124.582 73.2237 124.114 73.0372C122.581 72.413 120.919 72.0968 119.264 72.0968C117.522 74.0182 116.457 76.5719 116.457 79.377C116.457 81.5821 117.11 83.6251 118.24 85.3357C119.902 85.6114 121.637 85.733 123.267 85.3114C125.13 84.8331 126.785 83.6738 128.382 82.555C128.681 82.3442 128.971 82.1415 129.27 81.9388C131.19 80.6255 133.498 79.3121 136.039 79.4662C136.717 79.5067 137.363 79.6607 137.984 79.8715C137.984 79.7013 138 79.5391 138 79.3689C138 76.4422 136.846 73.7993 134.966 71.8455C134.942 71.8779 134.91 71.9103 134.886 71.9427L134.894 71.9508Z" fill="#B4C649"/>
<path d="M124.428 72.2508C124.912 72.4454 125.397 72.6724 125.865 72.8913C127.382 73.6047 128.818 74.2695 130.327 74.0587C132.013 73.8155 133.377 72.4211 134.264 71.3996C134.296 71.359 134.337 71.3185 134.369 71.2699C132.473 69.5836 129.972 68.554 127.236 68.554C124.501 68.554 122 69.5836 120.104 71.278C121.588 71.3671 123.065 71.6995 124.436 72.2589L124.428 72.2508Z" fill="#D3E16B"/>
<path d="M135.991 80.3093C133.7 80.1634 131.553 81.4037 129.746 82.636C129.455 82.8387 129.157 83.0414 128.866 83.2441C127.204 84.4034 125.486 85.6113 123.477 86.1221C122.637 86.341 121.782 86.4221 120.927 86.4221C120.265 86.4221 119.595 86.3653 118.942 86.2842C120.919 88.6677 123.896 90.1919 127.22 90.1919C132.707 90.1919 137.234 86.0653 137.903 80.739C137.29 80.5038 136.653 80.3498 135.983 80.3012L135.991 80.3093Z" fill="#979940"/>
</g>
<defs>
<clipPath id="clip0_4506_70">
<rect width="138" height="135" fill="white"/>
</clipPath>
</defs>
</svg>
