<svg width="124" height="94" viewBox="0 0 124 94" fill="none" xmlns="http://www.w3.org/2000/svg">
<g clip-path="url(#clip0_4511_302)">
<path d="M38.1721 8.70157C40.5761 8.70157 42.5249 6.75366 42.5249 4.35079C42.5249 1.94791 40.5761 0 38.1721 0C35.7681 0 33.8193 1.94791 33.8193 4.35079C33.8193 6.75366 35.7681 8.70157 38.1721 8.70157Z" fill="#231F20"/>
<path d="M66.0298 7.17442C66.9882 7.17442 67.7651 6.39784 67.7651 5.43987C67.7651 4.48191 66.9882 3.70532 66.0298 3.70532C65.0714 3.70532 64.2944 4.48191 64.2944 5.43987C64.2944 6.39784 65.0714 7.17442 66.0298 7.17442Z" fill="#231F20"/>
<path d="M1.48168 58.3697C2.29999 58.3697 2.96336 57.7066 2.96336 56.8887C2.96336 56.0708 2.29999 55.4077 1.48168 55.4077C0.663371 55.4077 0 56.0708 0 56.8887C0 57.7066 0.663371 58.3697 1.48168 58.3697Z" fill="#231F20"/>
<path d="M71.4262 39.9984C72.1394 39.9984 72.7176 39.2218 72.7176 38.2638C72.7176 37.3059 72.1394 36.5293 71.4262 36.5293C70.713 36.5293 70.1348 37.3059 70.1348 38.2638C70.1348 39.2218 70.713 39.9984 71.4262 39.9984Z" fill="#231F20"/>
<path d="M57.1167 40.5978C58.0751 40.5978 58.8521 39.8212 58.8521 38.8632C58.8521 37.9052 58.0751 37.1287 57.1167 37.1287C56.1583 37.1287 55.3813 37.9052 55.3813 38.8632C55.3813 39.8212 56.1583 40.5978 57.1167 40.5978Z" fill="#231F20"/>
<path d="M52.9487 58.1794C54.9031 57.3439 67.8693 59.816 73.5481 60.0753C74.8972 54.6988 75.0701 49.9446 75.0701 43.2369C75.0701 38.5519 74.8107 34.0801 74.1938 29.9714C74.5743 35.5323 73.525 40.0214 71.7378 40.1943C69.8468 40.3729 67.852 35.6706 67.2754 29.6832C66.6989 23.6959 67.7655 18.6939 69.6565 18.5153C70.3311 18.4519 71.0114 19.0166 71.6455 20.0251C68.5092 12.1706 62.8823 7.18018 53.4387 7.18018C36.4426 7.18018 32.5684 31.1008 32.5684 51.0165C32.5684 70.9321 36.4426 79.2995 53.4387 79.2995C62.0867 79.2995 67.5291 75.1158 70.7923 68.3851M55.5488 19.1261C61.2392 19.1261 61.8676 24.0013 61.8676 30.0175C61.8676 36.0337 61.2392 40.9088 55.5488 40.9088C49.8585 40.9088 47.881 36.0337 47.881 30.0175C47.881 24.0013 49.8585 19.1261 55.5488 19.1261Z" fill="#231F20"/>
<path d="M32.2509 63.6367C33.8825 70.4193 37.1342 75.3291 34.609 75.842C29.7719 76.8159 21.5852 70.3098 20.2245 63.5618C19.5731 60.3347 22.767 47.7837 27.9904 45.5824C33.5712 43.2312 30.8788 57.9144 32.2509 63.631V63.6367Z" fill="#231F20"/>
<path d="M19.0889 63.4523C19.8326 69.7162 26.751 73.8768 27.1315 74.4704C32.3894 82.6649 6.55515 73.145 7.3623 66.3105C7.83505 62.294 11.4384 57.5744 15.9584 55.2808C23.361 51.5236 18.276 56.6178 19.0889 63.458V63.4523Z" fill="#231F20"/>
<path d="M9.01099 60.1388C6.06492 63.5157 6.89513 66.6448 6.62416 67.2326C5.64982 69.3532 0.979932 64.1323 2.15029 59.8506C2.55962 58.3523 3.41289 56.6236 6.51462 56.9232C11.9801 57.4534 9.70283 59.3435 9.01099 60.1388Z" fill="#231F20"/>
<path d="M64.8423 62.4035C67.5404 63.3889 70.4115 64.213 73.0059 65.4289C72.9829 67.5899 64.7961 63.8096 62.7552 62.9971C60.9391 62.2767 55.8369 61.0781 54.1476 60.0927C53.7441 59.8564 51.0978 57.8453 49.962 57.1249C49.4777 56.8195 52.4065 56.6755 52.9427 56.4565C53.1675 56.3643 53.4731 56.2951 53.8882 56.2778C54.7126 56.468 55.8253 58.289 58.7829 59.5568" fill="#231F20"/>
<path d="M65.1652 60.3001C67.996 60.7784 70.9709 61.0608 73.744 61.7869C74.7529 63.7808 64.8827 61.6082 62.7323 61.1876C60.8182 60.813 59.0828 60.0754 57.2437 59.4184C56.8055 59.2628 53.7557 58.3869 52.5046 57.8798C51.9685 57.6666 51.8993 56.9463 52.3836 56.6293C52.5911 56.4968 52.8794 56.3758 53.2772 56.2836C54.1247 56.3239 55.5487 57.9086 58.685 58.6117" fill="#231F20"/>
<path d="M89.8634 42.3859C88.9609 42.1373 88.028 42.6657 87.7797 43.5662C87.5314 44.4668 88.0617 45.3983 88.9641 45.647L92.1267 46.5183C93.0291 46.7669 93.962 46.2384 94.2104 45.3379C94.4587 44.4374 93.9284 43.5058 93.0259 43.2572L89.8634 42.3859Z" fill="#231F20"/>
<path d="M36.7769 62.1096C40.4724 57.7069 44.0584 53.2985 47.7424 48.9017C55.5256 47.242 63.6143 46.343 71.4955 44.937C75.6695 44.2743 79.8379 43.6 84.0119 42.92C90.5325 44.4299 96.9608 46.6427 103.447 48.3945C107.217 49.4837 110.994 50.5728 114.764 51.6677C118.16 55.9609 120.846 61.055 124.006 65.6075C123.821 65.9129 123.545 66.1146 123.164 66.2184C119.094 67.3017 115.041 68.4254 110.97 69.5088C110.74 69.5664 110.642 69.6817 110.584 69.918C109.742 73.3871 108.889 76.8562 108.042 80.3253C107.8 81.3049 107.563 82.2903 107.304 83.2642C107.275 83.3679 107.16 83.4947 107.05 83.5351C97.7218 87.0503 88.382 90.5251 79.0422 94.0057C74.2628 92.2885 69.5468 90.139 64.7904 88.2719C60.4549 86.5086 56.1252 84.7337 51.7897 82.9761C51.5994 82.9012 51.5245 82.7974 51.5014 82.5842C51.2766 80.4175 51.0287 78.2507 50.7981 76.084C50.4579 73.0644 50.1812 70.039 49.8007 67.0194C49.7834 66.8983 49.6104 66.7485 49.4778 66.7082C45.4363 65.3309 41.366 64.0228 37.3303 62.6398C37.0997 62.5591 36.944 62.2825 36.7826 62.1211L36.7769 62.1096Z" fill="#BF9042"/>
<path d="M81.3943 57.805C81.2502 57.7589 81.1464 57.7243 81.0426 57.6955C78.1081 56.9175 75.1793 56.1396 72.2448 55.3616C67.1598 54.0131 62.0748 52.6705 56.9898 51.322C54.257 50.6017 51.5185 49.9102 48.7973 49.1322C48.0997 48.9305 47.7423 49.1034 47.3156 49.6278C44.9173 52.5783 42.4843 55.4999 40.0629 58.4273C39.077 59.6144 38.0969 60.8073 37.0938 62.0174C37.1918 62.0578 37.2725 62.0924 37.3474 62.1212C43.401 64.1266 49.4545 66.132 55.5081 68.1373C60.6104 69.8258 65.7069 71.5142 70.8034 73.2085C70.9995 73.2719 71.1148 73.2546 71.2243 73.0759C71.3973 72.7936 71.5875 72.5227 71.772 72.2461C74.4702 68.195 77.1683 64.1438 79.8665 60.0927C80.3681 59.3378 80.8639 58.5829 81.3828 57.805H81.3943Z" fill="black"/>
<path d="M81.769 57.8279C81.8267 57.9489 81.8498 58.0008 81.8786 58.0527C82.7434 59.6604 83.6139 61.2625 84.4787 62.8702C86.4966 66.6102 88.5202 70.3444 90.5323 74.0901C90.6476 74.3033 90.7629 74.3667 90.9935 74.309C93.1901 73.7155 95.3867 73.1277 97.5832 72.5399C99.9931 71.8887 102.397 71.2376 104.813 70.5921C107.696 69.82 110.578 69.0593 113.461 68.2871C115.848 67.6474 118.235 67.0078 120.621 66.3681C121.648 66.0915 122.668 65.8207 123.694 65.5441C123.694 65.5153 123.694 65.4865 123.683 65.4692C122.293 63.3312 120.904 61.1933 119.52 59.0554C118.062 56.8022 116.603 54.549 115.15 52.2958C115.029 52.1114 114.943 51.927 114.643 51.9846C113.144 52.2612 111.633 52.5205 110.129 52.7914C107.615 53.2351 105.095 53.6788 102.582 54.1283C99.4281 54.6873 96.2688 55.252 93.1151 55.8168C90.0711 56.3585 87.0212 56.9001 83.9772 57.4361C83.2623 57.5628 82.5416 57.6954 81.7748 57.8337L81.769 57.8279Z" fill="black"/>
<path d="M78.8462 93.7753C79.7052 81.9273 80.5585 70.1139 81.4118 58.2948C81.3945 58.289 81.3714 58.2832 81.3541 58.2775C78.0679 63.5215 74.7874 68.7712 71.4839 74.0498C64.3868 71.6871 57.209 69.3014 50.0024 66.9041C49.9967 67.0251 49.9736 67.1116 49.9851 67.1923C50.0601 67.8492 50.1408 68.5061 50.2157 69.1573C50.429 70.9956 50.6481 72.8281 50.8499 74.6664C51.1324 77.2365 51.4034 79.8066 51.6743 82.3768C51.6974 82.6188 51.7897 82.7571 52.0318 82.8551C54.3264 83.7771 56.6152 84.7106 58.904 85.6442C64.4387 87.9031 69.9734 90.1621 75.5081 92.421C76.6093 92.8705 77.7047 93.3142 78.8462 93.7753Z" fill="black"/>
<path d="M83.3662 57.3035C93.7495 55.4652 104.069 53.6327 114.505 51.7829C104.415 48.8728 94.4356 45.9915 84.4097 43.0986C84.0638 47.8413 83.7179 52.5321 83.3662 57.3035Z" fill="black"/>
<path d="M90.3016 74.747C90.5495 74.5972 90.4688 74.4416 90.3766 74.2687C89.5406 72.7301 88.7162 71.1857 87.8802 69.6471C87.4709 68.8864 87.0558 68.1315 86.6464 67.3708L86.583 67.4054C87.8225 69.8488 89.0621 72.2921 90.3074 74.747H90.3016Z" fill="black"/>
<path d="M81.3945 57.805C80.8756 58.5887 80.3798 59.3436 79.8782 60.0927C77.18 64.1438 74.4819 68.195 71.7837 72.2461C71.5992 72.5227 71.409 72.7936 71.236 73.0759C71.1265 73.2546 71.0112 73.2776 70.8152 73.2085C65.7186 71.5142 60.6164 69.8258 55.5198 68.1373C49.4663 66.132 43.4127 64.1266 37.3591 62.1212C37.2784 62.0924 37.2035 62.0578 37.1055 62.0174C38.1086 60.8073 39.0887 59.6202 40.0746 58.4273C42.496 55.4999 44.929 52.5783 47.3273 49.6278C47.754 49.1034 48.1057 48.9305 48.809 49.1322C51.5245 49.9102 54.2688 50.6017 57.0015 51.322C62.0865 52.6705 67.1715 54.0131 72.2565 55.3616C75.191 56.1396 78.1198 56.9175 81.0543 57.6955C81.1581 57.7243 81.2619 57.7589 81.406 57.805H81.3945Z" fill="#FBF4BF"/>
<path d="M81.7694 57.8279C82.5362 57.6896 83.2569 57.5571 83.9718 57.4303C87.0158 56.8886 90.0657 56.3527 93.1098 55.811C96.2634 55.2521 99.4228 54.6873 102.576 54.1226C105.09 53.6731 107.609 53.2351 110.123 52.7856C111.628 52.5206 113.133 52.2612 114.637 51.9789C114.937 51.9213 115.024 52.1057 115.145 52.2901C116.603 54.5433 118.056 56.7964 119.515 59.0496C120.898 61.1876 122.288 63.3255 123.677 65.4634C123.689 65.4807 123.683 65.5095 123.689 65.5384C122.663 65.815 121.642 66.0858 120.616 66.3624C118.229 67.0021 115.842 67.6417 113.455 68.2814C110.573 69.0478 107.69 69.8142 104.808 70.5864C102.398 71.2318 99.9878 71.8888 97.5779 72.5342C95.3813 73.1277 93.1847 73.7098 90.9881 74.3033C90.7575 74.3667 90.6422 74.3033 90.5269 74.0843C88.5148 70.3444 86.4912 66.6044 84.4734 62.8645C83.6086 61.2567 82.738 59.6547 81.8732 58.0469C81.8444 57.9951 81.8213 57.9374 81.7637 57.8222L81.7694 57.8279Z" fill="#DFB256"/>
<path d="M78.8462 93.7753C77.7104 93.3142 76.6093 92.8705 75.5081 92.421C69.9734 90.1621 64.4387 87.9031 58.904 85.6442C56.6152 84.7106 54.3264 83.7713 52.0318 82.8551C51.7897 82.7571 51.6974 82.6188 51.6743 82.3768C51.4034 79.8066 51.1324 77.2365 50.8499 74.6664C50.6481 72.8281 50.429 70.9956 50.2157 69.1573C50.1408 68.5004 50.0601 67.8434 49.9851 67.1923C49.9736 67.1116 49.9967 67.0251 50.0024 66.9041C57.209 69.3014 64.3868 71.6871 71.4839 74.0498C74.7874 68.7712 78.0736 63.5215 81.3541 58.2775C81.3714 58.2832 81.3945 58.289 81.4118 58.2948C80.5585 70.1081 79.6995 81.9215 78.8462 93.7753Z" fill="#F3CF7D"/>
<path d="M83.3662 57.3035C83.7179 52.5321 84.058 47.8413 84.4097 43.0986C94.4298 45.9915 104.415 48.8728 114.505 51.7829C104.075 53.6327 93.7495 55.4652 83.3662 57.3035Z" fill="#F3CF7D"/>
<path d="M104.379 46.8753C104.699 46.1886 104.401 45.3728 103.714 45.0531C103.027 44.7335 102.211 45.0311 101.891 45.7178L99.9279 49.9339C99.6081 50.6206 99.9058 51.4364 100.593 51.756C101.28 52.0757 102.096 51.7781 102.416 51.0914L104.379 46.8753Z" fill="#231F20"/>
<path d="M100.773 47.1095C101.172 46.4658 100.974 45.6204 100.33 45.2211C99.6861 44.8218 98.8402 45.02 98.4408 45.6637L95.9884 49.6156C95.589 50.2593 95.7872 51.1048 96.4312 51.5041C97.0752 51.9033 97.9211 51.7052 98.3205 51.0615L100.773 47.1095Z" fill="#231F20"/>
<path d="M97.4151 46.6357C97.8652 46.0263 97.7357 45.1676 97.126 44.7178C96.5163 44.268 95.6572 44.3974 95.2071 45.0068L92.4442 48.7485C91.9942 49.3579 92.1237 50.2166 92.7334 50.6664C93.3431 51.1162 94.2022 50.9868 94.6522 50.3774L97.4151 46.6357Z" fill="#231F20"/>
<path d="M59.7276 43.6941C59.5708 42.9531 58.8427 42.4793 58.1012 42.6361C57.3598 42.7928 56.8859 43.5206 57.0427 44.2616L58.0052 48.8115C58.162 49.5525 58.8901 50.0263 59.6316 49.8695C60.373 49.7128 60.8469 48.985 60.6901 48.244L59.7276 43.6941Z" fill="#231F20"/>
<path d="M56.9875 44.5576C56.9203 43.8031 56.2539 43.2459 55.4991 43.3131C54.7442 43.3803 54.1868 44.0464 54.2541 44.8009L54.6668 49.433C54.7341 50.1875 55.4005 50.7446 56.1553 50.6774C56.9101 50.6102 57.4675 49.9441 57.4003 49.1897L56.9875 44.5576Z" fill="#231F20"/>
<path d="M54.2728 44.0083C54.2664 43.2508 53.647 42.642 52.8892 42.6483C52.1314 42.6546 51.5222 43.2738 51.5286 44.0312L51.5676 48.6815C51.5739 49.439 52.1934 50.0478 52.9511 50.0415C53.7089 50.0351 54.3181 49.416 54.3117 48.6585L54.2728 44.0083Z" fill="#231F20"/>
</g>
<defs>
<clipPath id="clip0_4511_302">
<rect width="124" height="94" fill="white"/>
</clipPath>
</defs>
</svg>
