<svg width="114" height="110" viewBox="0 0 114 110" fill="none" xmlns="http://www.w3.org/2000/svg">
<g clip-path="url(#clip0_4517_72)">
<path d="M83.3346 101.644C83.511 101.741 83.7026 101.822 83.8696 101.935C86.0479 103.428 88.4856 103.834 91.0156 103.377C92.2647 103.151 93.4939 102.596 94.4377 101.632C95.0508 101.009 95.464 100.285 95.4715 99.3872C95.274 99.3048 95.1047 99.2341 94.8966 99.1434C94.6018 100.439 93.8063 101.365 92.6381 101.982C91.1829 102.751 89.6644 103.132 88.0146 102.822C86.0696 102.46 84.4178 101.576 83.1062 100.09C82.3129 99.193 81.7831 98.1392 81.9825 96.892C82.1124 96.0558 82.3504 95.2288 82.6202 94.4266C82.9701 93.3756 83.7748 92.7107 84.7359 92.2432C86.9616 91.1655 89.2066 91.3108 91.4312 92.2341C92.7069 92.7652 93.8496 93.5039 94.5898 94.7289C94.7414 94.9807 94.9058 95.2598 94.9468 95.545C95.0781 96.3901 95.4058 97.1697 95.6287 97.9838C96.1592 99.9244 95.1643 101.943 93.2562 102.899C91.9316 103.565 90.5002 103.754 89.0443 103.729C87.1238 103.704 85.3271 103.211 83.7177 102.114C83.5555 102.008 83.418 101.87 83.2652 101.747C83.2911 101.709 83.3111 101.67 83.337 101.632L83.3346 101.644ZM82.9654 95.3944C82.9324 95.4063 82.8936 95.417 82.8607 95.4289C82.9675 95.7827 83.0355 96.1472 83.1894 96.4796C83.7332 97.6778 84.663 98.5034 85.8046 99.094C87.2413 99.8296 88.7995 99.9859 90.3754 99.8687C91.5492 99.7761 92.6443 99.3723 93.5362 98.5462C93.6857 98.4097 93.7904 98.2212 93.9093 98.054C93.8894 98.0007 93.8647 97.9404 93.8447 97.8872C91.9899 98.1767 90.1494 98.1796 88.3068 97.825C86.4229 97.4622 84.8252 96.5529 83.3383 95.2408L83.2015 95.9278C83.1004 95.6983 83.0323 95.5493 82.9654 95.3944Z" fill="#A71E22"/>
<path d="M95.689 109.56L76.1394 105.667L79.6353 88.1118L99.1848 92.0047L95.689 109.56ZM83.3344 101.644C83.3085 101.682 83.2885 101.721 83.2626 101.759C83.4154 101.882 83.5541 102.014 83.7152 102.126C85.3187 103.221 87.1225 103.71 89.0418 103.741C90.493 103.759 91.9302 103.571 93.2537 102.911C95.1618 101.955 96.1567 99.9362 95.6262 97.9956C95.4032 97.1815 95.0755 96.402 94.9443 95.5569C94.8974 95.2704 94.7388 94.9925 94.5873 94.7407C93.847 93.5157 92.7043 92.7771 91.4286 92.2459C89.2041 91.3226 86.9603 91.1714 84.7334 92.2551C83.7723 92.7225 82.9675 93.3874 82.6176 94.4384C82.3478 95.2406 82.1157 96.0688 81.98 96.9038C81.7876 98.1463 82.3174 99.2001 83.1036 100.102C84.4094 101.587 86.0659 102.477 88.0121 102.834C89.6631 103.138 91.1863 102.764 92.6356 101.994C93.7979 101.375 94.5993 100.451 94.894 99.1552C95.0963 99.2448 95.2656 99.3154 95.469 99.399C95.4614 100.297 95.0482 101.021 94.4351 101.644C93.4855 102.606 92.2562 103.162 91.013 103.389C88.4831 103.845 86.0466 103.434 83.867 101.947C83.7001 101.834 83.5084 101.753 83.3321 101.656L83.3344 101.644ZM95.8976 98.5053C95.9034 98.6604 95.9221 98.8119 95.922 98.9658C95.968 100.884 95.1968 102.331 93.4852 103.222C93.0005 103.476 92.4677 103.635 91.9618 103.842C91.8218 103.901 91.6901 103.979 91.4454 104.103C91.6523 104.169 91.7264 104.196 91.7958 104.216C91.8711 104.237 91.9463 104.258 92.0274 104.28C92.0168 104.334 92.0062 104.387 91.9956 104.44C88.7458 105.074 85.6506 104.87 82.9552 102.597C82.8528 102.743 82.7834 102.846 82.6974 102.97C83.036 103.204 83.3322 103.435 83.6555 103.623C86.5712 105.281 89.6371 105.448 92.7906 104.438C94.1351 104.01 95.1352 103.101 95.7569 101.821C96.275 100.754 96.3368 99.6457 95.9023 98.5124L95.8976 98.5053ZM80.9585 96.0477C81.0303 95.9943 81.0032 96.0073 80.9797 96.0334C79.5674 97.8766 80.1529 100.093 81.3846 101.551C81.4645 101.641 81.6562 101.63 81.9055 101.698C81.7939 101.522 81.7622 101.466 81.7293 101.417C80.949 100.301 80.1993 99.1847 80.6247 97.6931C80.7838 97.1398 80.8559 96.563 80.9585 96.0477ZM82.3659 100.706C81.5034 99.5429 80.8549 98.3177 81.0357 96.7958C80.7173 98.2103 81.3654 100.144 82.3659 100.706Z" fill="white"/>
<path d="M95.8979 98.5053C96.3265 99.6375 96.2706 100.747 95.7525 101.814C95.1308 103.094 94.1307 104.003 92.7862 104.431C89.6327 105.441 86.5668 105.274 83.6512 103.616C83.3279 103.428 83.0316 103.197 82.6931 102.963C82.7802 102.833 82.8484 102.736 82.9508 102.59C85.6462 104.863 88.7414 105.067 91.9912 104.433C92.0018 104.38 92.0125 104.326 92.0231 104.273C91.9466 104.258 91.8655 104.236 91.7914 104.209C91.722 104.189 91.648 104.161 91.441 104.096C91.6857 103.972 91.8175 103.894 91.9575 103.835C92.4633 103.628 92.9961 103.469 93.4808 103.215C95.1924 102.324 95.9636 100.877 95.9176 98.9588C95.9118 98.8037 95.899 98.6533 95.8932 98.4982L95.8979 98.5053Z" fill="black"/>
<path d="M80.9587 96.0477C80.8572 96.557 80.7793 97.1327 80.6249 97.693C80.1995 99.1847 80.9551 100.302 81.7295 101.417C81.7624 101.466 81.7941 101.522 81.9057 101.698C81.6564 101.63 81.4588 101.64 81.3848 101.551C80.1543 100.087 79.5675 97.8766 80.9799 96.0334C80.9963 96.0121 81.0293 96.0002 80.9587 96.0477Z" fill="black"/>
<path d="M82.366 100.706C81.3714 100.145 80.7233 98.2114 81.0358 96.7958C80.8479 98.3224 81.5035 99.5429 82.366 100.706Z" fill="black"/>
<path d="M82.9596 95.3931C83.0277 95.5422 83.0959 95.6912 83.1957 95.9266L83.3325 95.2396C84.8183 96.5576 86.416 97.4669 88.301 97.8238C90.1437 98.1784 91.9842 98.1755 93.839 97.8859C93.8589 97.9392 93.8836 97.9995 93.9036 98.0527C93.7788 98.2188 93.674 98.4073 93.5305 98.545C92.6327 99.3699 91.5434 99.7749 90.3697 99.8675C88.7937 99.9847 87.2344 99.8343 85.7988 99.0928C84.656 98.5081 83.7274 97.6766 83.1836 96.4784C83.0356 96.1472 82.9617 95.7815 82.8549 95.4277C82.8879 95.4158 82.9267 95.4051 82.9596 95.3931Z" fill="white"/>
<path d="M7.73734 60.4261C8.57187 60.5923 9.3841 60.0456 9.5515 59.2049C9.71891 58.3642 9.1781 57.548 8.34357 57.3818C7.50904 57.2156 6.69681 57.7624 6.52941 58.6031C6.362 59.4438 6.90282 60.26 7.73734 60.4261Z" fill="#231F20"/>
<path d="M55.4208 17.5507C57.8725 18.0389 60.2586 16.4326 60.7504 13.963C61.2422 11.4933 59.6534 9.09549 57.2018 8.60729C54.7501 8.11909 52.364 9.72538 51.8722 12.195C51.3804 14.6647 52.9692 17.0625 55.4208 17.5507Z" fill="#231F20"/>
<path d="M84.1437 21.6385C85.1211 21.8332 86.0724 21.1928 86.2685 20.2082C86.4645 19.2236 85.8311 18.2676 84.8537 18.073C83.8763 17.8784 82.925 18.5188 82.729 19.5033C82.5329 20.4879 83.1663 21.4439 84.1437 21.6385Z" fill="#231F20"/>
<path d="M83.3009 55.7073C84.0282 55.8521 84.7768 55.1714 84.9729 54.1868C85.1689 53.2022 84.7382 52.2866 84.0109 52.1418C83.2835 51.9969 82.5349 52.6777 82.3388 53.6623C82.1428 54.6469 82.5735 55.5625 83.3009 55.7073Z" fill="#231F20"/>
<path d="M69.7258 47.8131C70.7032 48.0077 71.6544 47.3673 71.8505 46.3827C72.0466 45.3981 71.4132 44.4422 70.4358 44.2476C69.4584 44.0529 68.5071 44.6933 68.311 45.6779C68.1149 46.6625 68.7483 47.6184 69.7258 47.8131Z" fill="#231F20"/>
<path d="M71.2629 80.8594C73.4271 80.3975 73.9038 79.692 79.6421 81.1117C82.1183 75.8597 84.6034 67.4321 85.9762 60.538C86.9351 55.7228 87.5857 51.074 87.7976 46.7258C87.0475 52.5185 85.0586 56.9193 83.2006 56.734C81.2355 56.5336 80.1636 51.2955 80.801 45.0247C81.4385 38.7538 83.55 33.8294 85.515 34.0298C86.2159 34.1017 86.7941 34.8203 87.2345 35.9855C85.6435 27.2758 80.9265 21.004 71.2957 19.0862C53.9628 15.6346 45.1159 39.4334 41.0398 59.9025C36.9638 80.3717 39.2023 89.7584 56.5353 93.21C65.3546 94.9662 71.7612 91.7715 76.4666 85.5164M71.0027 31.7927C76.8058 32.9483 76.4489 38.0866 75.2176 44.27C73.9863 50.4534 72.3476 55.3364 66.5445 54.1808C60.7414 53.0252 59.7225 47.613 60.9538 41.4296C62.1851 35.2462 65.1996 30.6371 71.0027 31.7927Z" fill="#231F20"/>
<path d="M38.1391 72.8103C38.4149 80.1128 40.7261 85.8193 38.0459 85.8336C32.9136 85.8523 25.8962 77.5029 25.8897 70.291C25.8858 66.8419 31.7119 54.5907 37.4893 53.3889C43.6619 52.1058 37.911 66.6503 38.1403 72.8044L38.1391 72.8103Z" fill="#231F20"/>
<path d="M24.7536 69.9478C24.2301 76.5369 30.434 82.2181 30.7006 82.9054C34.3856 92.3954 9.98768 77.3646 12.2096 70.504C13.5138 66.4719 18.1545 62.3529 23.2335 60.9135C31.5518 58.5552 25.3234 62.7583 24.7525 69.9537L24.7536 69.9478Z" fill="#231F20"/>
<path d="M15.1545 64.4956C11.4589 67.368 11.6651 70.7527 11.2685 71.3018C9.84082 73.2835 6.14693 66.9691 8.2168 62.8062C8.9409 61.3494 10.1649 59.7458 13.2668 60.6837C18.7321 62.3385 16.0228 63.8187 15.1545 64.4956Z" fill="#231F20"/>
<path d="M93.519 91.6646C93.1898 91.599 92.8782 91.4446 92.6314 91.2107L86.3111 85.4078C85.9444 85.07 85.7306 84.6087 85.7085 84.1055C85.6865 83.6024 85.8608 83.126 86.1974 82.7558L86.5892 82.3228C87.0352 81.8328 87.6833 81.617 88.336 81.747C88.6652 81.8125 88.9768 81.967 89.2236 82.2008L95.5439 88.0038C95.9107 88.3416 96.1244 88.8029 96.1465 89.306C96.1686 89.8092 95.9942 90.2856 95.6577 90.6557L95.2658 91.0888C94.8198 91.5788 94.1717 91.7946 93.519 91.6646Z" fill="black"/>
<path d="M88.2712 82.042C88.5417 82.0958 88.798 82.2207 89.0201 82.4251L95.3404 88.228C95.9763 88.8103 96.0216 89.8107 95.4415 90.4526L95.0484 90.8915C94.6648 91.3139 94.1061 91.4798 93.5828 91.3756C93.3123 91.3217 93.056 91.1968 92.8339 90.9924L86.5136 85.1895C85.8777 84.6072 85.8324 83.6068 86.4125 82.9649L86.8056 82.526C87.1892 82.1036 87.7479 81.9378 88.2712 82.042ZM88.3892 81.4497C87.6483 81.3022 86.8755 81.5608 86.366 82.1244L85.9729 82.5634C85.1668 83.4496 85.2272 84.8348 86.1111 85.6451L92.4314 91.448C92.7206 91.7149 93.0815 91.8977 93.4637 91.9738C94.2045 92.1213 94.9773 91.8626 95.4869 91.2991L95.8799 90.8601C96.686 89.9738 96.6256 88.5886 95.7417 87.7784L89.4214 81.9754C89.1323 81.7085 88.7713 81.5258 88.3892 81.4497Z" fill="white"/>
<path d="M95.8107 90.6246C95.6226 90.5871 95.4462 90.5212 95.2757 90.4257L87.7831 86.2735C87.3481 86.033 87.0308 85.6311 86.8935 85.1543C86.7574 84.6715 86.8094 84.1646 87.0554 83.7271L87.3356 83.2103C87.73 82.4883 88.5323 82.1124 89.3319 82.2716C89.5201 82.3091 89.7023 82.3761 89.8669 82.4705L97.3595 86.6226C97.7945 86.8632 98.1118 87.265 98.2491 87.7419C98.3853 88.2247 98.3332 88.7316 98.0872 89.169L97.807 89.6859C97.4126 90.4078 96.6103 90.7838 95.8107 90.6246Z" fill="black"/>
<path d="M89.273 82.5677C89.4259 82.5982 89.5799 82.6535 89.7234 82.7313L97.2159 86.8834C97.9696 87.3044 98.2442 88.2582 97.8286 89.0252L97.5425 89.5409C97.2058 90.1573 96.5165 90.4572 95.8639 90.3273C95.711 90.2968 95.557 90.2415 95.4135 90.1637L87.921 86.0116C87.1674 85.5906 86.8927 84.6369 87.3083 83.8699L87.5944 83.3542C87.9311 82.7377 88.6204 82.4378 89.273 82.5677ZM89.391 81.9755C88.462 81.7905 87.5315 82.2271 87.0712 83.0653L86.7851 83.581C86.2083 84.636 86.5862 85.9613 87.6325 86.5391L95.1251 90.6912C95.3179 90.7974 95.5284 90.8762 95.7459 90.9195C96.6749 91.1045 97.6054 90.6679 98.0657 89.8298L98.3518 89.3141C98.9287 88.259 98.5507 86.9337 97.5044 86.3559L90.0118 82.2038C89.8131 82.0965 89.6085 82.0188 89.391 81.9755Z" fill="white"/>
<path d="M84.653 90.8474C83.9533 90.7081 83.3691 90.2346 83.0837 89.5805L80.5972 83.9252C80.1979 83.0144 80.4584 81.9518 81.2244 81.3284C81.6669 80.733 82.3668 80.4106 83.1018 80.4646L89.9485 80.9536C90.0391 80.9593 90.1284 80.971 90.2166 80.9885C90.4107 81.0272 90.5941 81.0883 90.7716 81.1791L98.1437 84.1865C98.6752 84.4032 99.0936 84.819 99.3167 85.3561C99.5399 85.8931 99.5454 86.4792 99.3217 87.0196C98.9283 87.9819 97.9131 88.5372 96.9018 88.3358C96.7666 88.3089 96.6337 88.2701 96.5102 88.2147L89.2745 85.2591L85.863 85.0169L87.0833 87.7907C87.3194 88.3242 87.3343 88.9244 87.1211 89.4731C86.908 90.0218 86.4973 90.4573 85.9667 90.6965C85.5503 90.8845 85.0999 90.9364 84.653 90.8474Z" fill="black"/>
<path d="M90.1566 81.2906C90.3272 81.3245 90.4871 81.381 90.6317 81.4529C90.6317 81.4529 90.6317 81.4529 90.6376 81.4541L98.0261 84.4709C98.9761 84.8572 99.4306 85.9514 99.0444 86.9089C98.6993 87.7516 97.8194 88.2106 96.9609 88.0396C96.8492 88.0174 96.734 87.9821 96.6211 87.935L89.3407 84.9582L85.3812 84.6746L86.8035 87.9074C87.224 88.8655 86.7929 89.9865 85.8401 90.4126C85.4707 90.5792 85.0791 90.612 84.7086 90.5382C84.1266 90.4223 83.6105 90.0363 83.3544 89.4496L80.868 83.7944C80.5098 82.9841 80.7749 82.0517 81.4408 81.5316C81.8045 81.0252 82.4115 80.7089 83.0748 80.7547L89.9215 81.2437C90.0003 81.2471 90.0767 81.2623 90.1531 81.2776M90.2711 80.6853C90.1711 80.6654 90.07 80.6514 89.9677 80.6433L83.121 80.1543C82.3013 80.0958 81.5155 80.4504 81.0048 81.1122C80.1529 81.8293 79.8664 83.0223 80.3175 84.0419L82.8039 89.6971C83.1328 90.44 83.7958 90.9784 84.5895 91.1364C85.0952 91.2371 85.6079 91.1792 86.0844 90.9661C87.3395 90.4033 87.9096 88.922 87.354 87.6598L86.3357 85.345L89.2052 85.5469L96.395 88.4873C96.542 88.5473 96.6925 88.5896 96.8454 88.6201C97.9977 88.8496 99.1565 88.2182 99.6005 87.1244C100.115 85.8599 99.5103 84.4155 98.2558 83.9009L90.8731 80.8852C90.6838 80.7921 90.4839 80.7215 90.2781 80.6805L90.2711 80.6853Z" fill="white"/>
<path d="M88.6411 97.4051C91.4045 97.9553 93.8754 97.2426 94.1601 95.8132C94.4447 94.3837 92.4353 92.7788 89.672 92.2285C86.9086 91.6783 84.4377 92.391 84.153 93.8204C83.8684 95.2499 85.8778 96.8548 88.6411 97.4051Z" fill="#F16667"/>
</g>
<defs>
<clipPath id="clip0_4517_72">
<rect width="97.3948" height="91.4921" fill="white" transform="translate(18.0381 0.808472) rotate(11.2622)"/>
</clipPath>
</defs>
</svg>
