<svg width="102" height="78" viewBox="0 0 102 78" fill="none" xmlns="http://www.w3.org/2000/svg">
<g clip-path="url(#clip0_4517_50)">
<path d="M37.4006 8.55897C39.756 8.55897 41.6654 6.64298 41.6654 4.27949C41.6654 1.91599 39.756 0 37.4006 0C35.0452 0 33.1357 1.91599 33.1357 4.27949C33.1357 6.64298 35.0452 8.55897 37.4006 8.55897Z" fill="#231F20"/>
<path d="M64.6954 7.05691C65.6344 7.05691 66.3957 6.29305 66.3957 5.35078C66.3957 4.40851 65.6344 3.64465 64.6954 3.64465C63.7564 3.64465 62.9951 4.40851 62.9951 5.35078C62.9951 6.29305 63.7564 7.05691 64.6954 7.05691Z" fill="#231F20"/>
<path d="M1.45174 57.4131C2.25351 57.4131 2.90347 56.7609 2.90347 55.9564C2.90347 55.1519 2.25351 54.4997 1.45174 54.4997C0.649964 54.4997 0 55.1519 0 55.9564C0 56.7609 0.649964 57.4131 1.45174 57.4131Z" fill="#231F20"/>
<path d="M69.0788 33.6521C69.7776 33.6521 70.3441 32.8882 70.3441 31.9459C70.3441 31.0037 69.7776 30.2398 69.0788 30.2398C68.38 30.2398 67.8135 31.0037 67.8135 31.9459C67.8135 32.8882 68.38 33.6521 69.0788 33.6521Z" fill="#39C1CB"/>
<path d="M57.5269 34.0885C58.466 34.0885 59.2272 33.3247 59.2272 32.3824C59.2272 31.4401 58.466 30.6763 57.5269 30.6763C56.5879 30.6763 55.8267 31.4401 55.8267 32.3824C55.8267 33.3247 56.5879 34.0885 57.5269 34.0885Z" fill="#E9C01E"/>
<path d="M31.5995 62.5939C33.1981 69.2653 36.384 74.0946 33.9098 74.5991C29.1705 75.557 21.1492 69.1576 19.8161 62.5202C19.1778 59.346 22.3072 47.0007 27.425 44.8354C32.893 42.5228 30.255 56.9653 31.5995 62.5882V62.5939Z" fill="#231F20"/>
<path d="M18.7031 62.4124C19.4318 68.5738 26.2103 72.6662 26.5831 73.25C31.7348 81.3102 6.42265 71.9463 7.21348 65.2239C7.67668 61.2731 11.2072 56.6309 15.6358 54.3749C22.8888 50.6793 17.9066 55.69 18.7031 62.4181V62.4124Z" fill="#231F20"/>
<path d="M8.82901 59.1533C5.94248 62.4748 6.7559 65.5526 6.49041 66.1308C5.53577 68.2167 0.960257 63.0813 2.10696 58.8698C2.50802 57.3961 3.34404 55.6957 6.38308 55.9904C11.7381 56.5119 9.50686 58.371 8.82901 59.1533Z" fill="#231F20"/>
<path d="M84.5851 54.1766C84.844 54.1766 85.0539 53.9659 85.0539 53.7061C85.0539 53.4463 84.844 53.2357 84.5851 53.2357C84.3261 53.2357 84.1162 53.4463 84.1162 53.7061C84.1162 53.9659 84.3261 54.1766 84.5851 54.1766Z" fill="white"/>
<path d="M80.3142 35.1598L77.7666 46.7569C76.7159 51.5295 79.7211 56.2511 84.4773 57.3054C89.2336 58.3597 93.939 55.3442 94.9897 50.5716L97.5373 38.9745L80.3142 35.1655V35.1598Z" fill="#E9C01E"/>
<path d="M97.6391 38.5154L100.187 26.9183C101.237 22.1457 98.2323 17.4241 93.476 16.3698C88.7197 15.3155 84.0143 18.331 82.9636 23.1036L80.416 34.7007L97.6391 38.5097V38.5154Z" fill="#39C1CB"/>
<path d="M94.3258 40.1598L94.3203 40.1586C93.6957 40.0205 93.0779 40.4166 92.9402 41.0433L90.7917 50.8242C90.6541 51.4509 91.0488 52.0709 91.6733 52.209L91.6789 52.2103C92.3034 52.3484 92.9213 51.9523 93.059 51.3256L95.2074 41.5447C95.3451 40.918 94.9504 40.298 94.3258 40.1598Z" fill="#F8E7BB"/>
<path d="M97.3156 26.5489L97.3101 26.5477C96.6855 26.4095 96.0676 26.8056 95.9299 27.4323L94.2836 34.9271C94.146 35.5538 94.5407 36.1738 95.1652 36.312L95.1708 36.3132C95.7953 36.4513 96.4132 36.0553 96.5509 35.4286L98.1972 27.9337C98.3348 27.307 97.9401 26.687 97.3156 26.5489Z" fill="#BFE6F1"/>
<path d="M98.1041 22.9223L98.0986 22.9211C97.4741 22.7829 96.8562 23.179 96.7185 23.8057L96.7173 23.8112C96.5796 24.4379 96.9743 25.058 97.5989 25.1961L97.6044 25.1973C98.229 25.3354 98.8469 24.9394 98.9845 24.3127L98.9857 24.3071C99.1234 23.6804 98.7287 23.0604 98.1041 22.9223Z" fill="#BFE6F1"/>
<path d="M81.0538 31.6649C79.8113 31.5902 78.7437 32.5391 78.6693 33.7843C78.595 35.0296 79.5419 36.0996 80.7845 36.1744L85.1375 36.4362C86.3801 36.5109 87.4477 35.562 87.522 34.3168C87.5964 33.0715 86.6494 32.0014 85.4069 31.9267L81.0538 31.6649Z" fill="#231F20"/>
<path d="M96.3215 49.292C97.111 49.9203 98.2579 49.7885 98.8831 48.9975C99.5083 48.2065 99.3751 47.0559 98.5856 46.4276L93.7439 42.5742C92.9545 41.9458 91.8076 42.0777 91.1824 42.8686C90.5572 43.6596 90.6903 44.8102 91.4798 45.4385L96.3215 49.292Z" fill="#231F20"/>
<path d="M97.1353 44.541C97.8445 45.2593 98.9988 45.2657 99.7136 44.5552C100.428 43.8446 100.433 42.6863 99.7238 41.968L95.3746 37.5626C94.6655 36.8443 93.5111 36.8379 92.7964 37.5484C92.0816 38.2589 92.077 39.4172 92.7862 40.1356L97.1353 44.541Z" fill="#231F20"/>
<path d="M98.7821 40.34C99.4313 41.1133 100.581 41.2129 101.351 40.5625C102.12 39.9121 102.218 38.7579 101.569 37.9846L97.5873 33.242C96.9381 32.4687 95.788 32.3691 95.0185 33.0195C94.2491 33.6699 94.1516 34.8241 94.8008 35.5974L98.7821 40.34Z" fill="#231F20"/>
<path d="M55.4825 66.0684C52.6694 62.5032 54.5844 56.2681 59.7699 52.1474C64.2325 48.5991 69.6609 47.7829 72.8807 49.8971C73.2875 47.1197 73.553 44.5293 73.553 42.5228C73.553 37.9145 73.2988 33.516 72.6943 29.4746C73.0672 34.9444 72.0391 39.3599 70.288 39.53C68.4352 39.7057 66.4807 35.0804 65.9158 29.1912C65.3509 23.3019 66.396 18.3819 68.2487 18.2062C68.9097 18.1439 69.5762 18.6994 70.1976 19.6913C67.1246 11.9655 61.6114 7.05688 52.3587 7.05688C35.7061 7.05688 31.9102 30.5856 31.9102 50.1748C31.9102 69.7641 35.7061 77.9943 52.3587 77.9943C60.8319 77.9943 66.1644 73.8792 69.3616 67.2588C69.5141 66.6466 69.6892 65.9267 69.8756 65.1332C64.707 69.1916 58.2787 69.6167 55.4769 66.0684H55.4825ZM46.919 29.5199C46.919 23.6023 48.8565 18.807 54.4318 18.807C60.0072 18.807 60.6229 23.6023 60.6229 29.5199C60.6229 35.4375 60.0072 40.2328 54.4318 40.2328C48.8565 40.2328 46.919 35.4375 46.919 29.5199Z" fill="#231F20"/>
<path d="M87.268 44.7504C87.6973 44.552 88.1379 44.5123 88.5955 44.6427C89.0191 44.7617 89.3694 45.0395 89.6462 45.4816C89.923 45.9237 90.1037 46.4282 90.1884 46.995C90.2675 47.5618 90.2506 48.0776 90.1207 48.5311C90.0303 48.8655 89.923 49.1943 89.7987 49.506C89.6179 50.0332 89.488 50.4469 89.4033 50.7417L89.053 52.0227L88.7424 51.9377L88.2622 50.787L82.1615 49.0979L81.5345 50.0502L81.1899 49.7384L81.5119 48.5708C81.6814 47.9586 81.8283 47.3521 81.9469 46.7513C82.0429 46.2865 82.122 45.9464 82.1841 45.731C82.3084 45.2832 82.5005 44.9091 82.7716 44.6144C83.0427 44.3196 83.3478 44.1212 83.698 44.0192C84.0482 43.9172 84.4041 43.9172 84.7713 44.0192C85.1046 44.1099 85.3926 44.314 85.6355 44.6314C85.8784 44.9488 86.0592 45.3229 86.1835 45.765H86.2061C86.4941 45.2945 86.8557 44.9545 87.285 44.7561L87.268 44.7504ZM83.4777 45.578C83.0653 45.765 82.7829 46.1391 82.6304 46.7003C82.5174 47.1027 82.5344 47.4995 82.6756 47.8849L85.3362 48.6218L85.7316 47.1821C85.8445 46.7626 85.8276 46.4112 85.6864 46.1164C85.5395 45.8217 85.274 45.6233 84.8842 45.5156H84.8955C84.3646 45.3739 83.8957 45.3966 83.4833 45.5836L83.4777 45.578ZM89.4202 46.7966C89.2564 46.4452 88.974 46.2128 88.5616 46.0994C88.0419 45.9577 87.5787 45.9917 87.172 46.2071C86.7653 46.4225 86.4716 46.8306 86.2851 47.4315C86.2795 47.4825 86.2625 47.5448 86.24 47.6242L85.9236 48.7805L88.765 49.5684C89.07 49.1659 89.3072 48.6615 89.4711 48.0493H89.4598C89.5953 47.5618 89.5784 47.1424 89.4146 46.791L89.4202 46.7966Z" fill="white"/>
</g>
<defs>
<clipPath id="clip0_4517_50">
<rect width="102" height="78" fill="white"/>
</clipPath>
</defs>
</svg>
