<svg width="50" height="68" viewBox="0 0 50 68" fill="none" xmlns="http://www.w3.org/2000/svg">
<path d="M0 6.58008L0.738889 11.2209C0.818163 11.1994 0.897436 11.1764 0.970727 11.1492C1.93697 10.7917 2.81795 10.2491 3.55684 9.55292L0 6.58008Z" fill="black"/>
<path d="M35.4067 24.8019H41.6993L43.4986 8.40314L37.4065 7.75L35.4067 24.8019Z" fill="black"/>
<path d="M44.0251 3.5958C44.2046 1.94788 42.9901 0.46505 41.3178 0.289923C40.5266 0.206666 39.7324 0.432034 39.1161 0.91435C38.464 1.41963 38.0512 2.15603 37.9689 2.95558L37.6069 6.03609L43.6856 6.68779L44.0251 3.59436V3.5958Z" fill="black"/>
<path d="M4.91508 10.6884C4.89713 10.7057 4.87918 10.7243 4.86123 10.7401C3.93538 11.6215 2.83003 12.3077 1.61401 12.757C1.41657 12.8287 1.21615 12.8876 1.01123 12.9349L1.65888 17.0031L8.10995 13.357L4.91508 10.687V10.6884Z" fill="black"/>
<path d="M21.6238 21.9152H20.134V24.802H30.7806V0H20.134V2.49914H23.293C23.7881 2.49914 24.1904 2.88528 24.1904 3.36042C24.1904 3.83556 23.7881 4.2217 23.293 4.2217H20.134V8.39747H21.6238C22.1189 8.39747 22.5212 8.78361 22.5212 9.25874C22.5212 9.73388 22.1189 10.12 21.6238 10.12H20.134V14.2944H23.293C23.7881 14.2944 24.1904 14.6805 24.1904 15.1556C24.1904 15.6308 23.7881 16.0169 23.293 16.0169H20.134V20.1927H21.6238C22.1189 20.1927 22.5212 20.5788 22.5212 21.054C22.5212 21.5291 22.1189 21.9152 21.6238 21.9152Z" fill="black"/>
<path d="M15.0366 24.802L9.3184 14.6748L2.15088 18.7257L5.61498 24.802H15.0366Z" fill="black"/>
<path d="M16.5444 26.5244H4.23901V59.1827C4.2435 63.5967 7.97085 67.1739 12.5717 67.1796H40.3369C44.9363 67.1753 48.6636 63.5967 48.6696 59.1827V26.5244H16.5444ZM9.64906 58.6745C9.64906 59.1496 9.24671 59.5358 8.75162 59.5358C8.25654 59.5358 7.85419 59.1496 7.85419 58.6745V55.5581C7.85419 55.083 8.25654 54.6968 8.75162 54.6968C9.24671 54.6968 9.64906 55.083 9.64906 55.5581V58.6745ZM9.85098 51.4024C9.85098 51.8776 9.44863 52.2637 8.95355 52.2637C8.45846 52.2637 8.05611 51.8776 8.05611 51.4024V37.9478C8.05611 37.4727 8.45846 37.0866 8.95355 37.0866C9.44863 37.0866 9.85098 37.4727 9.85098 37.9478V51.4024Z" fill="black"/>
<path d="M47.5657 7.10574L43.6858 6.68945L43.4973 8.40196L47.3683 8.81681C47.7915 8.86131 48.1834 9.26468 48.143 9.61636L47.0796 19.1163C47.0272 19.5885 47.3832 20.0134 47.8753 20.0651C47.9082 20.068 47.9396 20.0709 47.9725 20.0709C48.4302 20.0709 48.8146 19.7393 48.864 19.3014L49.9274 9.80297C50.0725 8.51393 48.9672 7.25359 47.5642 7.10717L47.5657 7.10574Z" fill="black"/>
<path d="M36.732 5.94443C36.2399 5.89131 35.7957 6.23152 35.7403 6.70522C35.685 7.17893 36.0395 7.60382 36.533 7.65694L37.4065 7.75024L37.607 6.03773L36.732 5.94443Z" fill="black"/>
</svg>
