<svg width="26" height="26" viewBox="0 0 26 26" fill="none" xmlns="http://www.w3.org/2000/svg">
<path d="M25 13C25 19.6273 19.6273 25 13 25C6.37272 25 1 19.6273 1 13C1 6.37272 6.37272 1 13 1C19.6273 1 25 6.37272 25 13ZM12.6536 3.76641C11.7417 3.76641 11.0023 4.50551 11.0023 5.41768C11.0023 6.32984 11.7414 7.06894 12.6536 7.06894C13.5657 7.06894 14.3049 6.32984 14.3049 5.41768C14.3045 4.50582 13.5654 3.76641 12.6536 3.76641ZM15.4055 11.172C15.4055 12.6918 9.90167 12.6918 9.90167 11.172V9.92111C9.90167 8.40125 11.1334 7.1692 12.6536 7.1692C14.1737 7.1692 15.4055 8.40125 15.4055 9.92111V11.172ZM19.0563 8.58202C18.1444 8.58202 17.405 9.32112 17.405 10.2333C17.405 11.1454 18.1441 11.8846 19.0563 11.8846C19.9685 11.8846 20.7076 11.1454 20.7076 10.2333C20.7076 9.32112 19.9682 8.58202 19.0563 8.58202ZM21.8082 15.9873C21.8082 17.5071 16.3044 17.5071 16.3044 15.9873V14.7364C16.3044 13.2165 17.5361 11.9845 19.0563 11.9845C20.5765 11.9845 21.8082 13.2165 21.8082 14.7364V15.9873ZM6.9437 8.58202C6.03185 8.58202 5.29243 9.32112 5.29243 10.2333C5.29243 11.1454 6.03154 11.8846 6.9437 11.8846C7.85587 11.8846 8.59497 11.1454 8.59497 10.2333C8.59466 9.32112 7.85556 8.58202 6.9437 8.58202ZM9.69561 15.9873C9.69561 17.5071 4.19179 17.5071 4.19179 15.9873V14.7364C4.19179 13.2165 5.42354 11.9845 6.9437 11.9845C8.46387 11.9845 9.69561 13.2165 9.69561 14.7364V15.9873ZM12.6536 13.6882C11.7417 13.6882 11.0023 14.4273 11.0023 15.3395C11.0023 16.2516 11.7414 16.9907 12.6536 16.9907C13.5657 16.9907 14.3049 16.2516 14.3049 15.3395C14.3045 14.4273 13.5654 13.6882 12.6536 13.6882ZM15.4055 21.0935C15.4055 22.6133 9.90167 22.6133 9.90167 21.0935V19.8426C9.90167 18.3227 11.1334 17.0907 12.6536 17.0907C14.1737 17.0907 15.4055 18.3227 15.4055 19.8426V21.0935Z" stroke="#2E2D2C" stroke-opacity="0.5" stroke-miterlimit="10"/>
</svg>
